<mxfile host="app.diagrams.net" agent="Mozilla/5.0 (Windows NT 10.0; Win64; x64) AppleWebKit/537.36 (KHTML, like Gecko) Chrome/134.0.0.0 Safari/537.36" version="26.1.0">
  <diagram name="Page-1" id="8378b5f6-a2b2-b727-a746-972ab9d02e00">
    <mxGraphModel dx="1615" dy="857" grid="1" gridSize="10" guides="1" tooltips="1" connect="0" arrows="1" fold="1" page="1" pageScale="1.5" pageWidth="1600" pageHeight="900" background="none" math="0" shadow="0">
      <root>
        <mxCell id="0" />
        <mxCell id="1" parent="0" />
        <mxCell id="63" value="1" style="strokeColor=#82b366;fillColor=#d5e8d4;fontSize=13;" parent="1" vertex="1">
          <mxGeometry x="40" y="485" width="120" height="20" as="geometry" />
        </mxCell>
        <mxCell id="64" value="Quản lí dự án" style="align=left;strokeColor=#82b366;fillColor=#d5e8d4;fontSize=13;fontStyle=1" parent="1" vertex="1">
          <mxGeometry x="160" y="485" width="320" height="20" as="geometry" />
        </mxCell>
        <mxCell id="65" value="" style="strokeColor=#82b366;fillColor=#d5e8d4;fontSize=13;" parent="1" vertex="1">
          <mxGeometry x="920" y="485" width="120" height="20" as="geometry" />
        </mxCell>
        <mxCell id="66" value="" style="strokeColor=#82b366;fillColor=#d5e8d4;fontSize=13;" parent="1" vertex="1">
          <mxGeometry x="1040" y="485" width="80" height="20" as="geometry" />
        </mxCell>
        <mxCell id="67" value="" style="strokeColor=#82b366;fillColor=#d5e8d4;fontSize=13;" parent="1" vertex="1">
          <mxGeometry x="1120" y="485" width="80" height="20" as="geometry" />
        </mxCell>
        <mxCell id="68" value="" style="strokeColor=#DEEDFF" parent="1" vertex="1">
          <mxGeometry x="1721.75" y="480" width="20" height="640" as="geometry" />
        </mxCell>
        <mxCell id="69" value="1.1" style="fontSize=13;" parent="1" vertex="1">
          <mxGeometry x="40" y="505" width="120" height="20" as="geometry" />
        </mxCell>
        <mxCell id="70" value="Lập kế hoạch quản lí dự án" style="align=left;fontSize=13;fontStyle=1" parent="1" vertex="1">
          <mxGeometry x="160" y="505" width="320" height="20" as="geometry" />
        </mxCell>
        <mxCell id="74" value="1.2" style="fontSize=13;" parent="1" vertex="1">
          <mxGeometry x="40" y="525" width="120" height="20" as="geometry" />
        </mxCell>
        <mxCell id="75" value="Xác định phạm vi dự án" style="align=left;fontSize=13;fontStyle=1" parent="1" vertex="1">
          <mxGeometry x="160" y="525" width="320" height="20" as="geometry" />
        </mxCell>
        <mxCell id="79" value="1.3" style="fontSize=13;" parent="1" vertex="1">
          <mxGeometry x="40" y="545" width="120" height="20" as="geometry" />
        </mxCell>
        <mxCell id="80" value="Lập lịch trình" style="align=left;fontSize=13;fontStyle=1" parent="1" vertex="1">
          <mxGeometry x="160" y="545" width="320" height="20" as="geometry" />
        </mxCell>
        <mxCell id="84" value="1.4" style="fontSize=13;" parent="1" vertex="1">
          <mxGeometry x="40" y="565" width="120" height="20" as="geometry" />
        </mxCell>
        <mxCell id="85" value="Quản lí rủi ro" style="align=left;fontSize=13;fontStyle=1" parent="1" vertex="1">
          <mxGeometry x="160" y="565" width="320" height="20" as="geometry" />
        </mxCell>
        <mxCell id="89" value="1.5" style="fontSize=13;" parent="1" vertex="1">
          <mxGeometry x="40" y="585" width="120" height="20" as="geometry" />
        </mxCell>
        <mxCell id="90" value="Điều chỉnh kế hoạch" style="align=left;fontSize=13;fontStyle=1" parent="1" vertex="1">
          <mxGeometry x="160" y="585" width="320" height="20" as="geometry" />
        </mxCell>
        <mxCell id="94" value="1.6" style="fontSize=13;" parent="1" vertex="1">
          <mxGeometry x="40" y="605" width="120" height="20" as="geometry" />
        </mxCell>
        <mxCell id="95" value="Quản lí nhóm dự án" style="align=left;fontSize=13;fontStyle=1" parent="1" vertex="1">
          <mxGeometry x="160" y="605" width="320" height="20" as="geometry" />
        </mxCell>
        <mxCell id="99" value="2" style="strokeColor=#82b366;fillColor=#d5e8d4;fontSize=13;" parent="1" vertex="1">
          <mxGeometry x="40" y="625" width="120" height="20" as="geometry" />
        </mxCell>
        <mxCell id="100" value="Phân tích yêu cầu" style="align=left;strokeColor=#82b366;fillColor=#d5e8d4;fontSize=13;fontStyle=1" parent="1" vertex="1">
          <mxGeometry x="160" y="625" width="320" height="20" as="geometry" />
        </mxCell>
        <mxCell id="104" value="2.1" style="fontSize=13;" parent="1" vertex="1">
          <mxGeometry x="40" y="645" width="120" height="20" as="geometry" />
        </mxCell>
        <mxCell id="105" value="Khảo sát người dùng" style="align=left;fontSize=13;fontStyle=1" parent="1" vertex="1">
          <mxGeometry x="160" y="645" width="320" height="20" as="geometry" />
        </mxCell>
        <mxCell id="109" value="2.2" style="fontSize=13;" parent="1" vertex="1">
          <mxGeometry x="40" y="665" width="120" height="20" as="geometry" />
        </mxCell>
        <mxCell id="110" value="Xác định yêu cầu hệ thống" style="align=left;fontSize=13;fontStyle=1" parent="1" vertex="1">
          <mxGeometry x="160" y="665" width="320" height="20" as="geometry" />
        </mxCell>
        <mxCell id="114" value="2.3" style="fontSize=13;" parent="1" vertex="1">
          <mxGeometry x="40" y="685" width="120" height="20" as="geometry" />
        </mxCell>
        <mxCell id="115" value="Xây dựng các Use Case" style="align=left;fontSize=13;fontStyle=1" parent="1" vertex="1">
          <mxGeometry x="160" y="685" width="320" height="20" as="geometry" />
        </mxCell>
        <mxCell id="119" value="2.4" style="fontSize=13;" parent="1" vertex="1">
          <mxGeometry x="40" y="705" width="120" height="20" as="geometry" />
        </mxCell>
        <mxCell id="120" value="Xác định yêu cầu báo cáo" style="align=left;fontSize=13;fontStyle=1" parent="1" vertex="1">
          <mxGeometry x="160" y="705" width="320" height="20" as="geometry" />
        </mxCell>
        <mxCell id="124" value="3" style="strokeColor=#82b366;fillColor=#d5e8d4;fontSize=13;" parent="1" vertex="1">
          <mxGeometry x="40" y="725" width="120" height="20" as="geometry" />
        </mxCell>
        <mxCell id="125" value="Thiết kế hệ thống" style="align=left;strokeColor=#82b366;fillColor=#d5e8d4;fontSize=13;fontStyle=1" parent="1" vertex="1">
          <mxGeometry x="160" y="725" width="320" height="20" as="geometry" />
        </mxCell>
        <mxCell id="129" value="3.1" style="fontSize=13;" parent="1" vertex="1">
          <mxGeometry x="40" y="745" width="120" height="20" as="geometry" />
        </mxCell>
        <mxCell id="130" value="Thiết kế UI/UX" style="align=left;fontSize=13;fontStyle=1" parent="1" vertex="1">
          <mxGeometry x="160" y="745" width="320" height="20" as="geometry" />
        </mxCell>
        <mxCell id="134" value="3.2" style="fontSize=13;" parent="1" vertex="1">
          <mxGeometry x="40" y="765" width="120" height="20" as="geometry" />
        </mxCell>
        <mxCell id="135" value="Thiết kế kiến trúc hệ thống" style="align=left;fontSize=13;fontStyle=1" parent="1" vertex="1">
          <mxGeometry x="160" y="765" width="320" height="20" as="geometry" />
        </mxCell>
        <mxCell id="139" value="3.3" style="fontSize=13;" parent="1" vertex="1">
          <mxGeometry x="40" y="785" width="120" height="20" as="geometry" />
        </mxCell>
        <mxCell id="140" value="Thiết kế cơ sở dữ liệu" style="align=left;fontSize=13;fontStyle=1" parent="1" vertex="1">
          <mxGeometry x="160" y="785" width="320" height="20" as="geometry" />
        </mxCell>
        <mxCell id="144" value="3.4" style="fontSize=13;" parent="1" vertex="1">
          <mxGeometry x="40" y="805" width="120" height="20" as="geometry" />
        </mxCell>
        <mxCell id="145" value="Xây dựng sơ đồ luồng dữ liệu và xử lí" style="align=left;fontSize=13;fontStyle=1" parent="1" vertex="1">
          <mxGeometry x="160" y="805" width="320" height="20" as="geometry" />
        </mxCell>
        <mxCell id="149" value="3.5" style="fontSize=13;" parent="1" vertex="1">
          <mxGeometry x="40" y="825" width="120" height="20" as="geometry" />
        </mxCell>
        <mxCell id="150" value="Tối ưu hiệu suất xử lí dữ liệu" style="align=left;fontSize=13;fontStyle=1" parent="1" vertex="1">
          <mxGeometry x="160" y="825" width="320" height="20" as="geometry" />
        </mxCell>
        <mxCell id="154" value="4" style="strokeColor=#82b366;fillColor=#d5e8d4;fontSize=13;" parent="1" vertex="1">
          <mxGeometry x="40" y="845" width="120" height="20" as="geometry" />
        </mxCell>
        <mxCell id="155" value="Phát triển hệ thống" style="align=left;strokeColor=#82b366;fillColor=#d5e8d4;fontSize=13;fontStyle=1" parent="1" vertex="1">
          <mxGeometry x="160" y="845" width="320" height="20" as="geometry" />
        </mxCell>
        <mxCell id="159" value="4.1" style="fontSize=13;" parent="1" vertex="1">
          <mxGeometry x="40" y="865" width="120" height="20" as="geometry" />
        </mxCell>
        <mxCell id="160" value="Xây dựng hệ thống quản lí tài khoản người dùng" style="align=left;fontSize=13;fontStyle=1" parent="1" vertex="1">
          <mxGeometry x="160" y="865" width="320" height="20" as="geometry" />
        </mxCell>
        <mxCell id="164" value="4.2" style="fontSize=13;" parent="1" vertex="1">
          <mxGeometry x="40" y="885" width="120" height="20" as="geometry" />
        </mxCell>
        <mxCell id="165" value="Phát triển chức năng tìm&amp;xem thông tin chuyến xe" style="align=left;fontSize=13;fontStyle=1" parent="1" vertex="1">
          <mxGeometry x="160" y="885" width="320" height="20" as="geometry" />
        </mxCell>
        <mxCell id="169" value="4.3" style="fontSize=13;" parent="1" vertex="1">
          <mxGeometry x="40" y="905" width="120" height="20" as="geometry" />
        </mxCell>
        <mxCell id="170" value="Xây dựng hệ thống đặt vé và thanh toán " style="align=left;fontSize=13;fontStyle=1" parent="1" vertex="1">
          <mxGeometry x="160" y="905" width="320" height="20" as="geometry" />
        </mxCell>
        <mxCell id="174" value="4.4" style="fontSize=13;" parent="1" vertex="1">
          <mxGeometry x="40" y="925" width="120" height="20" as="geometry" />
        </mxCell>
        <mxCell id="175" value="Quản lí đơn đặt vé" style="align=left;fontSize=13;fontStyle=1" parent="1" vertex="1">
          <mxGeometry x="160" y="925" width="320" height="20" as="geometry" />
        </mxCell>
        <mxCell id="179" value="4.5" style="fontSize=13;" parent="1" vertex="1">
          <mxGeometry x="40" y="945" width="120" height="20" as="geometry" />
        </mxCell>
        <mxCell id="180" value="Quản lí xe và lịch trình" style="align=left;fontSize=13;fontStyle=1" parent="1" vertex="1">
          <mxGeometry x="160" y="945" width="320" height="20" as="geometry" />
        </mxCell>
        <mxCell id="184" value="4.6" style="fontSize=13;" parent="1" vertex="1">
          <mxGeometry x="40" y="965" width="120" height="20" as="geometry" />
        </mxCell>
        <mxCell id="185" value="Quản lí doanh thu" style="align=left;fontSize=13;fontStyle=1" parent="1" vertex="1">
          <mxGeometry x="160" y="965" width="320" height="20" as="geometry" />
        </mxCell>
        <mxCell id="189" value="5" style="strokeColor=#82b366;fillColor=#d5e8d4;fontSize=13;" parent="1" vertex="1">
          <mxGeometry x="40" y="985" width="120" height="20" as="geometry" />
        </mxCell>
        <mxCell id="190" value="Kiểm thư và triển khai" style="align=left;strokeColor=#82b366;fillColor=#d5e8d4;fontSize=13;fontStyle=1" parent="1" vertex="1">
          <mxGeometry x="160" y="985" width="320" height="20" as="geometry" />
        </mxCell>
        <mxCell id="194" value="" style="strokeColor=#DEEDFF" parent="1" vertex="1">
          <mxGeometry x="1741.75" y="480" width="20" height="640" as="geometry" />
        </mxCell>
        <mxCell id="195" value="" style="strokeColor=#DEEDFF" parent="1" vertex="1">
          <mxGeometry x="1761.75" y="480" width="20" height="640" as="geometry" />
        </mxCell>
        <mxCell id="196" value="" style="strokeColor=#DEEDFF" parent="1" vertex="1">
          <mxGeometry x="1781.75" y="480" width="20" height="640" as="geometry" />
        </mxCell>
        <mxCell id="197" value="" style="strokeColor=#DEEDFF" parent="1" vertex="1">
          <mxGeometry x="1801.75" y="480" width="20" height="640" as="geometry" />
        </mxCell>
        <mxCell id="198" value="" style="strokeColor=#DEEDFF;fillColor=#D4E1FF" parent="1" vertex="1">
          <mxGeometry x="1821.75" y="480" width="20" height="640" as="geometry" />
        </mxCell>
        <mxCell id="199" value="" style="strokeColor=#DEEDFF;fillColor=#D4E1FF" parent="1" vertex="1">
          <mxGeometry x="1841.75" y="480" width="20" height="640" as="geometry" />
        </mxCell>
        <mxCell id="200" value="" style="strokeColor=#DEEDFF" parent="1" vertex="1">
          <mxGeometry x="1861.75" y="480" width="20" height="640" as="geometry" />
        </mxCell>
        <mxCell id="201" value="" style="strokeColor=#DEEDFF" parent="1" vertex="1">
          <mxGeometry x="1881.75" y="480" width="20" height="640" as="geometry" />
        </mxCell>
        <mxCell id="202" value="" style="strokeColor=#DEEDFF" parent="1" vertex="1">
          <mxGeometry x="1901.75" y="480" width="20" height="640" as="geometry" />
        </mxCell>
        <mxCell id="203" value="" style="strokeColor=#DEEDFF" parent="1" vertex="1">
          <mxGeometry x="1921.75" y="480" width="20" height="640" as="geometry" />
        </mxCell>
        <mxCell id="204" value="" style="strokeColor=#DEEDFF" parent="1" vertex="1">
          <mxGeometry x="1941.75" y="480" width="20" height="640" as="geometry" />
        </mxCell>
        <mxCell id="205" value="" style="strokeColor=#DEEDFF;fillColor=#D4E1FF" parent="1" vertex="1">
          <mxGeometry x="1961.75" y="480" width="20" height="640" as="geometry" />
        </mxCell>
        <mxCell id="206" value="" style="strokeColor=#DEEDFF;fillColor=#D4E1FF" parent="1" vertex="1">
          <mxGeometry x="1981.75" y="480" width="20" height="640" as="geometry" />
        </mxCell>
        <mxCell id="207" value="" style="strokeColor=#DEEDFF" parent="1" vertex="1">
          <mxGeometry x="2001.75" y="480" width="20" height="640" as="geometry" />
        </mxCell>
        <mxCell id="208" value="" style="strokeColor=#DEEDFF" parent="1" vertex="1">
          <mxGeometry x="2021.75" y="480" width="20" height="640" as="geometry" />
        </mxCell>
        <mxCell id="209" value="" style="strokeColor=#DEEDFF" parent="1" vertex="1">
          <mxGeometry x="2041.75" y="480" width="20" height="640" as="geometry" />
        </mxCell>
        <mxCell id="210" value="" style="strokeColor=#DEEDFF" parent="1" vertex="1">
          <mxGeometry x="2061.75" y="480" width="20" height="640" as="geometry" />
        </mxCell>
        <mxCell id="211" value="" style="strokeColor=#DEEDFF" parent="1" vertex="1">
          <mxGeometry x="2081.75" y="480" width="20" height="640" as="geometry" />
        </mxCell>
        <mxCell id="212" value="" style="strokeColor=#DEEDFF;fillColor=#D4E1FF" parent="1" vertex="1">
          <mxGeometry x="2101.75" y="480" width="20" height="640" as="geometry" />
        </mxCell>
        <mxCell id="213" value="" style="strokeColor=#DEEDFF;fillColor=#D4E1FF" parent="1" vertex="1">
          <mxGeometry x="2121.75" y="480" width="20" height="640" as="geometry" />
        </mxCell>
        <mxCell id="214" value="" style="strokeColor=#DEEDFF" parent="1" vertex="1">
          <mxGeometry x="2141.75" y="480" width="20" height="640" as="geometry" />
        </mxCell>
        <mxCell id="215" value="" style="strokeColor=#DEEDFF" parent="1" vertex="1">
          <mxGeometry x="2161.75" y="480" width="20" height="640" as="geometry" />
        </mxCell>
        <mxCell id="216" value="" style="strokeColor=#DEEDFF" parent="1" vertex="1">
          <mxGeometry x="2181.75" y="480" width="20" height="640" as="geometry" />
        </mxCell>
        <mxCell id="217" value="" style="strokeColor=#DEEDFF" parent="1" vertex="1">
          <mxGeometry x="2201.75" y="480" width="20" height="640" as="geometry" />
        </mxCell>
        <mxCell id="218" value="" style="strokeColor=#DEEDFF" parent="1" vertex="1">
          <mxGeometry x="2221.75" y="480" width="20" height="640" as="geometry" />
        </mxCell>
        <mxCell id="219" value="" style="strokeColor=#DEEDFF;fillColor=#D4E1FF" parent="1" vertex="1">
          <mxGeometry x="2241.75" y="480" width="20" height="640" as="geometry" />
        </mxCell>
        <mxCell id="220" value="" style="strokeColor=#DEEDFF;fillColor=#D4E1FF" parent="1" vertex="1">
          <mxGeometry x="2261.75" y="480" width="20" height="640" as="geometry" />
        </mxCell>
        <mxCell id="221" value="" style="strokeColor=#DEEDFF" parent="1" vertex="1">
          <mxGeometry x="2281.75" y="480" width="20" height="640" as="geometry" />
        </mxCell>
        <mxCell id="222" value="" style="strokeColor=#DEEDFF" parent="1" vertex="1">
          <mxGeometry x="2301.75" y="480" width="20" height="640" as="geometry" />
        </mxCell>
        <mxCell id="223" value="" style="strokeColor=#DEEDFF" parent="1" vertex="1">
          <mxGeometry x="2321.75" y="480" width="20" height="640" as="geometry" />
        </mxCell>
        <mxCell id="224" value="" style="strokeColor=#DEEDFF" parent="1" vertex="1">
          <mxGeometry x="2341.75" y="480" width="20" height="640" as="geometry" />
        </mxCell>
        <mxCell id="225" value="" style="strokeColor=#DEEDFF" parent="1" vertex="1">
          <mxGeometry x="2361.75" y="480" width="20" height="640" as="geometry" />
        </mxCell>
        <mxCell id="226" value="" style="strokeColor=#DEEDFF;fillColor=#D4E1FF" parent="1" vertex="1">
          <mxGeometry x="2381.75" y="480" width="20" height="640" as="geometry" />
        </mxCell>
        <mxCell id="227" value="" style="strokeColor=#DEEDFF;fillColor=#D4E1FF" parent="1" vertex="1">
          <mxGeometry x="2401.75" y="480" width="20" height="640" as="geometry" />
        </mxCell>
        <mxCell id="228" value="" style="strokeColor=#DEEDFF" parent="1" vertex="1">
          <mxGeometry x="2421.75" y="480" width="20" height="640" as="geometry" />
        </mxCell>
        <mxCell id="229" value="" style="strokeColor=#DEEDFF" parent="1" vertex="1">
          <mxGeometry x="2441.75" y="480" width="20" height="640" as="geometry" />
        </mxCell>
        <mxCell id="230" value="" style="strokeColor=#DEEDFF" parent="1" vertex="1">
          <mxGeometry x="2461.75" y="480" width="20" height="640" as="geometry" />
        </mxCell>
        <mxCell id="231" value="" style="strokeColor=#DEEDFF" parent="1" vertex="1">
          <mxGeometry x="2481.75" y="480" width="20" height="640" as="geometry" />
        </mxCell>
        <mxCell id="232" value="" style="strokeColor=#DEEDFF" parent="1" vertex="1">
          <mxGeometry x="2501.75" y="480" width="20" height="640" as="geometry" />
        </mxCell>
        <mxCell id="233" value="" style="strokeColor=#DEEDFF;fillColor=#D4E1FF" parent="1" vertex="1">
          <mxGeometry x="2521.75" y="480" width="20" height="640" as="geometry" />
        </mxCell>
        <mxCell id="234" value="" style="strokeColor=#DEEDFF;fillColor=#D4E1FF" parent="1" vertex="1">
          <mxGeometry x="2541.75" y="480" width="20" height="640" as="geometry" />
        </mxCell>
        <mxCell id="235" value="" style="strokeColor=#DEEDFF" parent="1" vertex="1">
          <mxGeometry x="2561.75" y="480" width="20" height="640" as="geometry" />
        </mxCell>
        <mxCell id="236" value="" style="strokeColor=#DEEDFF" parent="1" vertex="1">
          <mxGeometry x="2581.75" y="480" width="20" height="640" as="geometry" />
        </mxCell>
        <mxCell id="237" value="" style="strokeColor=#DEEDFF" parent="1" vertex="1">
          <mxGeometry x="2601.75" y="480" width="20" height="640" as="geometry" />
        </mxCell>
        <mxCell id="238" value="" style="strokeColor=#DEEDFF" parent="1" vertex="1">
          <mxGeometry x="2621.75" y="480" width="20" height="640" as="geometry" />
        </mxCell>
        <mxCell id="239" value="" style="strokeColor=#DEEDFF" parent="1" vertex="1">
          <mxGeometry x="2641.75" y="480" width="20" height="640" as="geometry" />
        </mxCell>
        <mxCell id="240" value="" style="strokeColor=#DEEDFF;fillColor=#D4E1FF" parent="1" vertex="1">
          <mxGeometry x="2661.75" y="480" width="20" height="640" as="geometry" />
        </mxCell>
        <mxCell id="241" value="" style="strokeColor=#DEEDFF;fillColor=#D4E1FF" parent="1" vertex="1">
          <mxGeometry x="2681.75" y="480" width="20" height="640" as="geometry" />
        </mxCell>
        <mxCell id="2" value="TIÊU ĐỀ CÔNG VIỆC" style="fillColor=#23445D;strokeColor=#FFFFFF;strokeWidth=2;fontColor=#FFFFFF;fontStyle=1;fontSize=13;" parent="1" vertex="1">
          <mxGeometry x="160" y="415" width="320" height="70" as="geometry" />
        </mxCell>
        <mxCell id="3" value="SỐ CẤU TRÚC&#xa; PHÂN CHIA CÔNG &#xa;VIỆC (WBS)" style="fillColor=#23445D;strokeColor=#FFFFFF;strokeWidth=2;fontColor=#FFFFFF;fontStyle=1;fontSize=13;" parent="1" vertex="1">
          <mxGeometry x="40" y="415" width="120" height="70" as="geometry" />
        </mxCell>
        <mxCell id="4" value="TUẦN 1 (6/1 - 12/1)" style="fillColor=#23445D;strokeColor=#FFFFFF;strokeWidth=2;fontColor=#FFFFFF;fontStyle=1" parent="1" vertex="1">
          <mxGeometry x="1721.7500000000018" y="440.0000000000001" width="140" height="20" as="geometry" />
        </mxCell>
        <mxCell id="5" value="M" style="fillColor=#23445D;strokeColor=#FFFFFF;strokeWidth=2;fontColor=#FFFFFF;fontStyle=1" parent="1" vertex="1">
          <mxGeometry x="1721.7500000000018" y="460.0000000000001" width="20" height="20" as="geometry" />
        </mxCell>
        <mxCell id="6" value="T" style="fillColor=#23445D;strokeColor=#FFFFFF;strokeWidth=2;fontColor=#FFFFFF;fontStyle=1" parent="1" vertex="1">
          <mxGeometry x="1741.7500000000018" y="460.0000000000001" width="20" height="20" as="geometry" />
        </mxCell>
        <mxCell id="7" value="W" style="fillColor=#23445D;strokeColor=#FFFFFF;strokeWidth=2;fontColor=#FFFFFF;fontStyle=1" parent="1" vertex="1">
          <mxGeometry x="1761.7500000000018" y="460.0000000000001" width="20" height="20" as="geometry" />
        </mxCell>
        <mxCell id="8" value="T" style="fillColor=#23445D;strokeColor=#FFFFFF;strokeWidth=2;fontColor=#FFFFFF;fontStyle=1" parent="1" vertex="1">
          <mxGeometry x="1781.7500000000018" y="460.0000000000001" width="20" height="20" as="geometry" />
        </mxCell>
        <mxCell id="9" value="F" style="fillColor=#23445D;strokeColor=#FFFFFF;strokeWidth=2;fontColor=#FFFFFF;fontStyle=1" parent="1" vertex="1">
          <mxGeometry x="1801.7500000000016" y="460.0000000000001" width="20" height="20" as="geometry" />
        </mxCell>
        <mxCell id="10" value="S" style="fillColor=#23445D;strokeColor=#FFFFFF;strokeWidth=2;fontColor=#FFFFFF;fontStyle=1" parent="1" vertex="1">
          <mxGeometry x="1821.7500000000016" y="460.0000000000001" width="20" height="20" as="geometry" />
        </mxCell>
        <mxCell id="11" value="S" style="fillColor=#23445D;strokeColor=#FFFFFF;strokeWidth=2;fontColor=#FFFFFF;fontStyle=1" parent="1" vertex="1">
          <mxGeometry x="1841.7500000000016" y="460.0000000000001" width="20" height="20" as="geometry" />
        </mxCell>
        <mxCell id="12" value="NGÀY ĐẾN&#xa;HẠNG" style="fillColor=#23445D;strokeColor=#FFFFFF;strokeWidth=2;fontColor=#FFFFFF;fontStyle=1;fontSize=13;" parent="1" vertex="1">
          <mxGeometry x="920" y="415" width="120" height="70" as="geometry" />
        </mxCell>
        <mxCell id="13" value="THỜI GIAN&#xa;(NGÀY)" style="fillColor=#23445D;strokeColor=#FFFFFF;strokeWidth=2;fontColor=#FFFFFF;fontStyle=1;fontSize=13;" parent="1" vertex="1">
          <mxGeometry x="1040" y="415" width="80" height="70" as="geometry" />
        </mxCell>
        <mxCell id="14" value="% CÔNG&#xa; VIỆC HOÀN &#xa;THÀNH" style="fillColor=#23445D;strokeColor=#FFFFFF;strokeWidth=2;fontColor=#FFFFFF;fontStyle=1;fontSize=13;" parent="1" vertex="1">
          <mxGeometry x="1120" y="415" width="80" height="70" as="geometry" />
        </mxCell>
        <mxCell id="15" value="TUẦN 2 (13/1 - 19/1)" style="fillColor=#23445D;strokeColor=#FFFFFF;strokeWidth=2;fontColor=#FFFFFF;fontStyle=1" parent="1" vertex="1">
          <mxGeometry x="1861.7500000000018" y="440.0000000000001" width="140" height="20" as="geometry" />
        </mxCell>
        <mxCell id="16" value="M" style="fillColor=#23445D;strokeColor=#FFFFFF;strokeWidth=2;fontColor=#FFFFFF;fontStyle=1" parent="1" vertex="1">
          <mxGeometry x="1861.7500000000018" y="460.0000000000001" width="20" height="20" as="geometry" />
        </mxCell>
        <mxCell id="17" value="T" style="fillColor=#23445D;strokeColor=#FFFFFF;strokeWidth=2;fontColor=#FFFFFF;fontStyle=1" parent="1" vertex="1">
          <mxGeometry x="1881.7500000000018" y="460.0000000000001" width="20" height="20" as="geometry" />
        </mxCell>
        <mxCell id="18" value="W" style="fillColor=#23445D;strokeColor=#FFFFFF;strokeWidth=2;fontColor=#FFFFFF;fontStyle=1" parent="1" vertex="1">
          <mxGeometry x="1901.7500000000018" y="460.0000000000001" width="20" height="20" as="geometry" />
        </mxCell>
        <mxCell id="19" value="T" style="fillColor=#23445D;strokeColor=#FFFFFF;strokeWidth=2;fontColor=#FFFFFF;fontStyle=1" parent="1" vertex="1">
          <mxGeometry x="1921.7500000000018" y="460.0000000000001" width="20" height="20" as="geometry" />
        </mxCell>
        <mxCell id="20" value="F" style="fillColor=#23445D;strokeColor=#FFFFFF;strokeWidth=2;fontColor=#FFFFFF;fontStyle=1" parent="1" vertex="1">
          <mxGeometry x="1941.7500000000016" y="460.0000000000001" width="20" height="20" as="geometry" />
        </mxCell>
        <mxCell id="21" value="S" style="fillColor=#23445D;strokeColor=#FFFFFF;strokeWidth=2;fontColor=#FFFFFF;fontStyle=1" parent="1" vertex="1">
          <mxGeometry x="1961.7500000000016" y="460.0000000000001" width="20" height="20" as="geometry" />
        </mxCell>
        <mxCell id="22" value="S" style="fillColor=#23445D;strokeColor=#FFFFFF;strokeWidth=2;fontColor=#FFFFFF;fontStyle=1" parent="1" vertex="1">
          <mxGeometry x="1981.7500000000016" y="460.0000000000001" width="20" height="20" as="geometry" />
        </mxCell>
        <mxCell id="23" value="TUẦN 3 (10/2 - 16/2)" style="fillColor=#23445D;strokeColor=#FFFFFF;strokeWidth=2;fontColor=#FFFFFF;fontStyle=1" parent="1" vertex="1">
          <mxGeometry x="2001.7500000000018" y="440.00000000000006" width="140" height="20" as="geometry" />
        </mxCell>
        <mxCell id="24" value="M" style="fillColor=#23445D;strokeColor=#FFFFFF;strokeWidth=2;fontColor=#FFFFFF;fontStyle=1" parent="1" vertex="1">
          <mxGeometry x="2001.7500000000018" y="460.00000000000006" width="20" height="20" as="geometry" />
        </mxCell>
        <mxCell id="25" value="T" style="fillColor=#23445D;strokeColor=#FFFFFF;strokeWidth=2;fontColor=#FFFFFF;fontStyle=1" parent="1" vertex="1">
          <mxGeometry x="2021.7500000000018" y="460.00000000000006" width="20" height="20" as="geometry" />
        </mxCell>
        <mxCell id="26" value="W" style="fillColor=#23445D;strokeColor=#FFFFFF;strokeWidth=2;fontColor=#FFFFFF;fontStyle=1" parent="1" vertex="1">
          <mxGeometry x="2041.7500000000018" y="460.00000000000006" width="20" height="20" as="geometry" />
        </mxCell>
        <mxCell id="27" value="T" style="fillColor=#23445D;strokeColor=#FFFFFF;strokeWidth=2;fontColor=#FFFFFF;fontStyle=1" parent="1" vertex="1">
          <mxGeometry x="2061.750000000002" y="460.00000000000006" width="20" height="20" as="geometry" />
        </mxCell>
        <mxCell id="28" value="F" style="fillColor=#23445D;strokeColor=#FFFFFF;strokeWidth=2;fontColor=#FFFFFF;fontStyle=1" parent="1" vertex="1">
          <mxGeometry x="2081.750000000002" y="460.00000000000006" width="20" height="20" as="geometry" />
        </mxCell>
        <mxCell id="29" value="S" style="fillColor=#23445D;strokeColor=#FFFFFF;strokeWidth=2;fontColor=#FFFFFF;fontStyle=1" parent="1" vertex="1">
          <mxGeometry x="2101.750000000002" y="460.00000000000006" width="20" height="20" as="geometry" />
        </mxCell>
        <mxCell id="30" value="S" style="fillColor=#23445D;strokeColor=#FFFFFF;strokeWidth=2;fontColor=#FFFFFF;fontStyle=1" parent="1" vertex="1">
          <mxGeometry x="2121.750000000002" y="460.00000000000006" width="20" height="20" as="geometry" />
        </mxCell>
        <mxCell id="31" value="TUẦN 4 (17/2 - 23/2)" style="fillColor=#23445D;strokeColor=#FFFFFF;strokeWidth=2;fontColor=#FFFFFF;fontStyle=1" parent="1" vertex="1">
          <mxGeometry x="2141.750000000002" y="440.00000000000006" width="140" height="20" as="geometry" />
        </mxCell>
        <mxCell id="32" value="M" style="fillColor=#23445D;strokeColor=#FFFFFF;strokeWidth=2;fontColor=#FFFFFF;fontStyle=1" parent="1" vertex="1">
          <mxGeometry x="2141.750000000002" y="460.00000000000006" width="20" height="20" as="geometry" />
        </mxCell>
        <mxCell id="33" value="T" style="fillColor=#23445D;strokeColor=#FFFFFF;strokeWidth=2;fontColor=#FFFFFF;fontStyle=1" parent="1" vertex="1">
          <mxGeometry x="2161.750000000002" y="460.00000000000006" width="20" height="20" as="geometry" />
        </mxCell>
        <mxCell id="34" value="W" style="fillColor=#23445D;strokeColor=#FFFFFF;strokeWidth=2;fontColor=#FFFFFF;fontStyle=1" parent="1" vertex="1">
          <mxGeometry x="2181.750000000002" y="460.00000000000006" width="20" height="20" as="geometry" />
        </mxCell>
        <mxCell id="35" value="T" style="fillColor=#23445D;strokeColor=#FFFFFF;strokeWidth=2;fontColor=#FFFFFF;fontStyle=1" parent="1" vertex="1">
          <mxGeometry x="2201.750000000002" y="460.00000000000006" width="20" height="20" as="geometry" />
        </mxCell>
        <mxCell id="36" value="F" style="fillColor=#23445D;strokeColor=#FFFFFF;strokeWidth=2;fontColor=#FFFFFF;fontStyle=1" parent="1" vertex="1">
          <mxGeometry x="2221.750000000002" y="460" width="20" height="20" as="geometry" />
        </mxCell>
        <mxCell id="37" value="S" style="fillColor=#23445D;strokeColor=#FFFFFF;strokeWidth=2;fontColor=#FFFFFF;fontStyle=1" parent="1" vertex="1">
          <mxGeometry x="2241.750000000002" y="460" width="20" height="20" as="geometry" />
        </mxCell>
        <mxCell id="38" value="S" style="fillColor=#23445D;strokeColor=#FFFFFF;strokeWidth=2;fontColor=#FFFFFF;fontStyle=1" parent="1" vertex="1">
          <mxGeometry x="2261.750000000002" y="460" width="20" height="20" as="geometry" />
        </mxCell>
        <mxCell id="39" value="TUẦN 5 (24/2 - 2/3)" style="fillColor=#23445D;strokeColor=#FFFFFF;strokeWidth=2;fontColor=#FFFFFF;fontStyle=1" parent="1" vertex="1">
          <mxGeometry x="2281.750000000002" y="440.00000000000006" width="140" height="20" as="geometry" />
        </mxCell>
        <mxCell id="40" value="M" style="fillColor=#23445D;strokeColor=#FFFFFF;strokeWidth=2;fontColor=#FFFFFF;fontStyle=1" parent="1" vertex="1">
          <mxGeometry x="2281.750000000002" y="460.00000000000006" width="20" height="20" as="geometry" />
        </mxCell>
        <mxCell id="41" value="T" style="fillColor=#23445D;strokeColor=#FFFFFF;strokeWidth=2;fontColor=#FFFFFF;fontStyle=1" parent="1" vertex="1">
          <mxGeometry x="2301.750000000002" y="460.00000000000006" width="20" height="20" as="geometry" />
        </mxCell>
        <mxCell id="42" value="W" style="fillColor=#23445D;strokeColor=#FFFFFF;strokeWidth=2;fontColor=#FFFFFF;fontStyle=1" parent="1" vertex="1">
          <mxGeometry x="2321.750000000002" y="460.00000000000006" width="20" height="20" as="geometry" />
        </mxCell>
        <mxCell id="43" value="T" style="fillColor=#23445D;strokeColor=#FFFFFF;strokeWidth=2;fontColor=#FFFFFF;fontStyle=1" parent="1" vertex="1">
          <mxGeometry x="2341.750000000002" y="460.00000000000006" width="20" height="20" as="geometry" />
        </mxCell>
        <mxCell id="44" value="F" style="fillColor=#23445D;strokeColor=#FFFFFF;strokeWidth=2;fontColor=#FFFFFF;fontStyle=1" parent="1" vertex="1">
          <mxGeometry x="2361.750000000002" y="460" width="20" height="20" as="geometry" />
        </mxCell>
        <mxCell id="45" value="S" style="fillColor=#23445D;strokeColor=#FFFFFF;strokeWidth=2;fontColor=#FFFFFF;fontStyle=1" parent="1" vertex="1">
          <mxGeometry x="2381.750000000002" y="460" width="20" height="20" as="geometry" />
        </mxCell>
        <mxCell id="46" value="S" style="fillColor=#23445D;strokeColor=#FFFFFF;strokeWidth=2;fontColor=#FFFFFF;fontStyle=1" parent="1" vertex="1">
          <mxGeometry x="2401.750000000002" y="460" width="20" height="20" as="geometry" />
        </mxCell>
        <mxCell id="47" value="TUẦN 6 (3/3 - 9/3)" style="fillColor=#23445D;strokeColor=#FFFFFF;strokeWidth=2;fontColor=#FFFFFF;fontStyle=1" parent="1" vertex="1">
          <mxGeometry x="2421.750000000002" y="440" width="140" height="20" as="geometry" />
        </mxCell>
        <mxCell id="48" value="M" style="fillColor=#23445D;strokeColor=#FFFFFF;strokeWidth=2;fontColor=#FFFFFF;fontStyle=1" parent="1" vertex="1">
          <mxGeometry x="2421.750000000002" y="460" width="20" height="20" as="geometry" />
        </mxCell>
        <mxCell id="49" value="T" style="fillColor=#23445D;strokeColor=#FFFFFF;strokeWidth=2;fontColor=#FFFFFF;fontStyle=1" parent="1" vertex="1">
          <mxGeometry x="2441.750000000002" y="460" width="20" height="20" as="geometry" />
        </mxCell>
        <mxCell id="50" value="W" style="fillColor=#23445D;strokeColor=#FFFFFF;strokeWidth=2;fontColor=#FFFFFF;fontStyle=1" parent="1" vertex="1">
          <mxGeometry x="2461.750000000002" y="460" width="20" height="20" as="geometry" />
        </mxCell>
        <mxCell id="51" value="T" style="fillColor=#23445D;strokeColor=#FFFFFF;strokeWidth=2;fontColor=#FFFFFF;fontStyle=1" parent="1" vertex="1">
          <mxGeometry x="2481.750000000002" y="460" width="20" height="20" as="geometry" />
        </mxCell>
        <mxCell id="52" value="F" style="fillColor=#23445D;strokeColor=#FFFFFF;strokeWidth=2;fontColor=#FFFFFF;fontStyle=1" parent="1" vertex="1">
          <mxGeometry x="2501.750000000002" y="460" width="20" height="20" as="geometry" />
        </mxCell>
        <mxCell id="53" value="S" style="fillColor=#23445D;strokeColor=#FFFFFF;strokeWidth=2;fontColor=#FFFFFF;fontStyle=1" parent="1" vertex="1">
          <mxGeometry x="2521.750000000002" y="460" width="20" height="20" as="geometry" />
        </mxCell>
        <mxCell id="54" value="S" style="fillColor=#23445D;strokeColor=#FFFFFF;strokeWidth=2;fontColor=#FFFFFF;fontStyle=1" parent="1" vertex="1">
          <mxGeometry x="2541.750000000002" y="460" width="20" height="20" as="geometry" />
        </mxCell>
        <mxCell id="55" value="TUẦN 7 (10/3 - 16/3)" style="fillColor=#23445D;strokeColor=#FFFFFF;strokeWidth=2;fontColor=#FFFFFF;fontStyle=1" parent="1" vertex="1">
          <mxGeometry x="2562.750000000002" y="440.0000000000001" width="140" height="20" as="geometry" />
        </mxCell>
        <mxCell id="56" value="M" style="fillColor=#23445D;strokeColor=#FFFFFF;strokeWidth=2;fontColor=#FFFFFF;fontStyle=1" parent="1" vertex="1">
          <mxGeometry x="2561.750000000002" y="460.0000000000001" width="20" height="20" as="geometry" />
        </mxCell>
        <mxCell id="57" value="T" style="fillColor=#23445D;strokeColor=#FFFFFF;strokeWidth=2;fontColor=#FFFFFF;fontStyle=1" parent="1" vertex="1">
          <mxGeometry x="2581.750000000002" y="460.0000000000001" width="20" height="20" as="geometry" />
        </mxCell>
        <mxCell id="58" value="W" style="fillColor=#23445D;strokeColor=#FFFFFF;strokeWidth=2;fontColor=#FFFFFF;fontStyle=1" parent="1" vertex="1">
          <mxGeometry x="2601.750000000002" y="460.0000000000001" width="20" height="20" as="geometry" />
        </mxCell>
        <mxCell id="59" value="T" style="fillColor=#23445D;strokeColor=#FFFFFF;strokeWidth=2;fontColor=#FFFFFF;fontStyle=1" parent="1" vertex="1">
          <mxGeometry x="2621.750000000002" y="460.0000000000001" width="20" height="20" as="geometry" />
        </mxCell>
        <mxCell id="60" value="F" style="fillColor=#23445D;strokeColor=#FFFFFF;strokeWidth=2;fontColor=#FFFFFF;fontStyle=1" parent="1" vertex="1">
          <mxGeometry x="2641.750000000002" y="460.0000000000001" width="20" height="20" as="geometry" />
        </mxCell>
        <mxCell id="61" value="S" style="fillColor=#23445D;strokeColor=#FFFFFF;strokeWidth=2;fontColor=#FFFFFF;fontStyle=1" parent="1" vertex="1">
          <mxGeometry x="2661.750000000002" y="460.0000000000001" width="20" height="20" as="geometry" />
        </mxCell>
        <mxCell id="62" value="S" style="fillColor=#23445D;strokeColor=#FFFFFF;strokeWidth=2;fontColor=#FFFFFF;fontStyle=1" parent="1" vertex="1">
          <mxGeometry x="2681.750000000002" y="460.0000000000001" width="20" height="20" as="geometry" />
        </mxCell>
        <mxCell id="246" value="" style="shape=mxgraph.flowchart.process;fillColor=#AE4132;strokeColor=none;strokeWidth=2;opacity=50" parent="1" vertex="1">
          <mxGeometry x="1841.7500000000018" y="540.0000000000009" width="19.999999999998863" height="19.99999999999983" as="geometry" />
        </mxCell>
        <mxCell id="248" value="" style="shape=mxgraph.flowchart.process;fillColor=#AE4132;strokeColor=none;strokeWidth=2;opacity=50" parent="1" vertex="1">
          <mxGeometry x="2641.750000000003" y="620.0000000000014" width="19.999999999998863" height="19.99999999999983" as="geometry" />
        </mxCell>
        <mxCell id="259" value="" style="shape=mxgraph.flowchart.process;fillColor=#AE4132;strokeColor=none;strokeWidth=2;opacity=50" parent="1" vertex="1">
          <mxGeometry x="2061.750000000002" y="720.0000000000005" width="279.99999999999807" height="19.99999999999983" as="geometry" />
        </mxCell>
        <mxCell id="264" value="" style="shape=mxgraph.flowchart.process;fillColor=#AE4132;strokeColor=none;strokeWidth=2;opacity=50" parent="1" vertex="1">
          <mxGeometry x="2081.7500000000036" y="840.0000000000016" width="379.9999999999965" height="19.99999999999983" as="geometry" />
        </mxCell>
        <mxCell id="272" value="" style="shape=mxgraph.arrows.bent_right_arrow;fillColor=#AE4132;strokeColor=none;strokeWidth=2;direction=south" parent="1" vertex="1">
          <mxGeometry x="2341.75" y="730.0000000000368" width="10.000000000000341" height="9.99999999999983" as="geometry" />
        </mxCell>
        <mxCell id="276" value="" style="shape=mxgraph.arrows.bent_right_arrow;fillColor=#AE4132;strokeColor=none;strokeWidth=2;direction=south" parent="1" vertex="1">
          <mxGeometry x="2461.7500000000036" y="850.000000000003" width="10.000000000000341" height="9.99999999999983" as="geometry" />
        </mxCell>
        <mxCell id="N6iVnPfqX5solzvo0P7z-278" value="" style="strokeColor=#82b366;fillColor=#d5e8d4;" vertex="1" parent="1">
          <mxGeometry x="480" y="485" width="320" height="20" as="geometry" />
        </mxCell>
        <mxCell id="N6iVnPfqX5solzvo0P7z-279" value="Trương Công Trí &amp; Phạm Hữu Tuân &amp; Võ Trần Anh Quân" style="" vertex="1" parent="1">
          <mxGeometry x="480" y="505" width="320" height="20" as="geometry" />
        </mxCell>
        <mxCell id="N6iVnPfqX5solzvo0P7z-304" value="NGƯỜI PHỤ TRÁCH CÔNG VIỆC" style="fillColor=#23445D;strokeColor=#FFFFFF;strokeWidth=2;fontColor=#FFFFFF;fontStyle=1;fontSize=13;" vertex="1" parent="1">
          <mxGeometry x="480" y="415" width="320" height="70" as="geometry" />
        </mxCell>
        <mxCell id="N6iVnPfqX5solzvo0P7z-305" value="" style="strokeColor=#82b366;fillColor=#d5e8d4;fontSize=13;" vertex="1" parent="1">
          <mxGeometry x="800" y="485" width="120" height="20" as="geometry" />
        </mxCell>
        <mxCell id="N6iVnPfqX5solzvo0P7z-306" value="9/1/2025" style="fontSize=13;" vertex="1" parent="1">
          <mxGeometry x="800" y="505" width="120" height="20" as="geometry" />
        </mxCell>
        <mxCell id="N6iVnPfqX5solzvo0P7z-329" value="NGÀY BẮT&#xa;ĐẦU" style="fillColor=#23445D;strokeColor=#FFFFFF;strokeWidth=2;fontColor=#FFFFFF;fontStyle=1;fontSize=13;" vertex="1" parent="1">
          <mxGeometry x="800" y="415" width="120" height="70" as="geometry" />
        </mxCell>
        <mxCell id="N6iVnPfqX5solzvo0P7z-385" value="5.1" style="fontSize=13;" vertex="1" parent="1">
          <mxGeometry x="40" y="1005" width="120" height="20" as="geometry" />
        </mxCell>
        <mxCell id="N6iVnPfqX5solzvo0P7z-386" value="Rà soát thiết kế hệ thống" style="align=left;fontSize=13;fontStyle=1" vertex="1" parent="1">
          <mxGeometry x="160" y="1005" width="320" height="20" as="geometry" />
        </mxCell>
        <mxCell id="N6iVnPfqX5solzvo0P7z-390" value="5.2" style="fontSize=13;" vertex="1" parent="1">
          <mxGeometry x="40" y="1025" width="120" height="20" as="geometry" />
        </mxCell>
        <mxCell id="N6iVnPfqX5solzvo0P7z-391" value="Cấu hình kiểm thử hệ thống" style="align=left;fontSize=13;fontStyle=1" vertex="1" parent="1">
          <mxGeometry x="160" y="1025" width="320" height="20" as="geometry" />
        </mxCell>
        <mxCell id="N6iVnPfqX5solzvo0P7z-395" value="5.3" style="fontSize=13;" vertex="1" parent="1">
          <mxGeometry x="40" y="1045" width="120" height="20" as="geometry" />
        </mxCell>
        <mxCell id="N6iVnPfqX5solzvo0P7z-396" value="Thực hiện kiểm thử chức năng" style="align=left;fontSize=13;fontStyle=1" vertex="1" parent="1">
          <mxGeometry x="160" y="1045" width="320" height="20" as="geometry" />
        </mxCell>
        <mxCell id="N6iVnPfqX5solzvo0P7z-400" value="5.4" style="fontSize=13;" vertex="1" parent="1">
          <mxGeometry x="40" y="1065" width="120" height="20" as="geometry" />
        </mxCell>
        <mxCell id="N6iVnPfqX5solzvo0P7z-401" value="Kiểm thử hiệu suất hệ thống" style="align=left;fontSize=13;fontStyle=1" vertex="1" parent="1">
          <mxGeometry x="160" y="1065" width="320" height="20" as="geometry" />
        </mxCell>
        <mxCell id="N6iVnPfqX5solzvo0P7z-405" value="5.5" style="fontSize=13;" vertex="1" parent="1">
          <mxGeometry x="40" y="1085" width="120" height="20" as="geometry" />
        </mxCell>
        <mxCell id="N6iVnPfqX5solzvo0P7z-406" value="Hoàn tất tài liệu bàn giao" style="align=left;fontSize=13;fontStyle=1" vertex="1" parent="1">
          <mxGeometry x="160" y="1085" width="320" height="20" as="geometry" />
        </mxCell>
        <mxCell id="N6iVnPfqX5solzvo0P7z-410" value="5.6" style="fontSize=13;" vertex="1" parent="1">
          <mxGeometry x="40" y="1105" width="120" height="20" as="geometry" />
        </mxCell>
        <mxCell id="N6iVnPfqX5solzvo0P7z-411" value="Họp tổng kết dự án" style="align=left;fontSize=13;fontStyle=1" vertex="1" parent="1">
          <mxGeometry x="160" y="1105" width="320" height="20" as="geometry" />
        </mxCell>
        <mxCell id="N6iVnPfqX5solzvo0P7z-471" value="Trương Công Trí &amp; Phạm Hữu Tuân &amp; Võ Trần Anh Quân" style="" vertex="1" parent="1">
          <mxGeometry x="480" y="525" width="320" height="20" as="geometry" />
        </mxCell>
        <mxCell id="N6iVnPfqX5solzvo0P7z-472" value="Trương Công Trí &amp; Phạm Hữu Tuân &amp; Võ Trần Anh Quân" style="" vertex="1" parent="1">
          <mxGeometry x="480" y="545" width="320" height="20" as="geometry" />
        </mxCell>
        <mxCell id="N6iVnPfqX5solzvo0P7z-473" value="Trương Công Trí &amp; Phạm Hữu Tuân &amp; Võ Trần Anh Quân" style="" vertex="1" parent="1">
          <mxGeometry x="480" y="605" width="320" height="20" as="geometry" />
        </mxCell>
        <mxCell id="N6iVnPfqX5solzvo0P7z-474" value="Trương Công Trí &amp; Phạm Hữu Tuân &amp; Võ Trần Anh Quân" style="" vertex="1" parent="1">
          <mxGeometry x="480" y="585" width="320" height="20" as="geometry" />
        </mxCell>
        <mxCell id="N6iVnPfqX5solzvo0P7z-475" value="Trương Công Trí &amp; Phạm Hữu Tuân &amp; Võ Trần Anh Quân" style="" vertex="1" parent="1">
          <mxGeometry x="480" y="565" width="320" height="20" as="geometry" />
        </mxCell>
        <mxCell id="N6iVnPfqX5solzvo0P7z-476" value="" style="strokeColor=#82b366;fillColor=#d5e8d4;" vertex="1" parent="1">
          <mxGeometry x="480" y="625" width="320" height="20" as="geometry" />
        </mxCell>
        <mxCell id="N6iVnPfqX5solzvo0P7z-477" value="Phạm Hữu Tuân" style="" vertex="1" parent="1">
          <mxGeometry x="480" y="645" width="320" height="20" as="geometry" />
        </mxCell>
        <mxCell id="N6iVnPfqX5solzvo0P7z-478" value="Trương Công Trí &amp; Võ Trần Anh Quân" style="" vertex="1" parent="1">
          <mxGeometry x="480" y="665" width="320" height="20" as="geometry" />
        </mxCell>
        <mxCell id="N6iVnPfqX5solzvo0P7z-479" value="Trương Công Trí &amp; Phạm Hữu Tuân &amp; Võ Trần Anh Quân" style="" vertex="1" parent="1">
          <mxGeometry x="480" y="685" width="320" height="20" as="geometry" />
        </mxCell>
        <mxCell id="N6iVnPfqX5solzvo0P7z-480" value="Trương Công Trí &amp; Võ Trần Anh Quân" style="" vertex="1" parent="1">
          <mxGeometry x="480" y="705" width="320" height="20" as="geometry" />
        </mxCell>
        <mxCell id="N6iVnPfqX5solzvo0P7z-481" value="" style="strokeColor=#82b366;fillColor=#d5e8d4;" vertex="1" parent="1">
          <mxGeometry x="480" y="725" width="320" height="20" as="geometry" />
        </mxCell>
        <mxCell id="N6iVnPfqX5solzvo0P7z-482" value="Trương Công Trí &amp; Phạm Hữu Tuân &amp; Võ Trần Anh Quân" style="" vertex="1" parent="1">
          <mxGeometry x="480" y="745" width="320" height="20" as="geometry" />
        </mxCell>
        <mxCell id="N6iVnPfqX5solzvo0P7z-483" value="Trương Công Trí &amp; Phạm Hữu Tuân" style="" vertex="1" parent="1">
          <mxGeometry x="480" y="765" width="320" height="20" as="geometry" />
        </mxCell>
        <mxCell id="N6iVnPfqX5solzvo0P7z-484" value="Trương Công Trí &amp; Phạm Hữu Tuân &amp; Võ Trần Anh Quân" style="" vertex="1" parent="1">
          <mxGeometry x="480" y="785" width="320" height="20" as="geometry" />
        </mxCell>
        <mxCell id="N6iVnPfqX5solzvo0P7z-485" value="Trương Công Trí &amp; Phạm Hữu Tuân &amp; Võ Trần Anh Quân" style="" vertex="1" parent="1">
          <mxGeometry x="480" y="825" width="320" height="20" as="geometry" />
        </mxCell>
        <mxCell id="N6iVnPfqX5solzvo0P7z-486" value="Trương Công Trí &amp; Phạm Hữu Tuân &amp; Võ Trần Anh Quân" style="" vertex="1" parent="1">
          <mxGeometry x="480" y="805" width="320" height="20" as="geometry" />
        </mxCell>
        <mxCell id="N6iVnPfqX5solzvo0P7z-487" value="" style="strokeColor=#82b366;fillColor=#d5e8d4;" vertex="1" parent="1">
          <mxGeometry x="480" y="845" width="320" height="20" as="geometry" />
        </mxCell>
        <mxCell id="N6iVnPfqX5solzvo0P7z-488" value="Phạm Hữu Tuân &amp; Võ Trần Anh Quân" style="" vertex="1" parent="1">
          <mxGeometry x="480" y="865" width="320" height="20" as="geometry" />
        </mxCell>
        <mxCell id="N6iVnPfqX5solzvo0P7z-489" value="Trương Công Trí &amp; Phạm Hữu Tuân" style="" vertex="1" parent="1">
          <mxGeometry x="480" y="885" width="320" height="20" as="geometry" />
        </mxCell>
        <mxCell id="N6iVnPfqX5solzvo0P7z-490" value="Trương Công Trí &amp; Võ Trần Anh Quân" style="" vertex="1" parent="1">
          <mxGeometry x="480" y="905" width="320" height="20" as="geometry" />
        </mxCell>
        <mxCell id="N6iVnPfqX5solzvo0P7z-491" value="Trương Công Trí &amp; Phạm Hữu Tuân" style="" vertex="1" parent="1">
          <mxGeometry x="480" y="965" width="320" height="20" as="geometry" />
        </mxCell>
        <mxCell id="N6iVnPfqX5solzvo0P7z-492" value="Phạm Hữu Tuân &amp; Võ Trần Anh Quân" style="" vertex="1" parent="1">
          <mxGeometry x="480" y="945" width="320" height="20" as="geometry" />
        </mxCell>
        <mxCell id="N6iVnPfqX5solzvo0P7z-493" value="Trương Công Trí &amp; Võ Trần Anh Quân" style="" vertex="1" parent="1">
          <mxGeometry x="480" y="925" width="320" height="20" as="geometry" />
        </mxCell>
        <mxCell id="N6iVnPfqX5solzvo0P7z-494" value="" style="strokeColor=#82b366;fillColor=#d5e8d4;" vertex="1" parent="1">
          <mxGeometry x="480" y="985" width="320" height="20" as="geometry" />
        </mxCell>
        <mxCell id="N6iVnPfqX5solzvo0P7z-495" value="Trương Công Trí &amp; Phạm Hữu Tuân &amp; Võ Trần Anh Quân" style="" vertex="1" parent="1">
          <mxGeometry x="480" y="1005" width="320" height="20" as="geometry" />
        </mxCell>
        <mxCell id="N6iVnPfqX5solzvo0P7z-496" value="Trương Công Trí &amp; Phạm Hữu Tuân &amp; Võ Trần Anh Quân" style="" vertex="1" parent="1">
          <mxGeometry x="480" y="1025" width="320" height="20" as="geometry" />
        </mxCell>
        <mxCell id="N6iVnPfqX5solzvo0P7z-497" value="Võ Trần Anh Quân" style="" vertex="1" parent="1">
          <mxGeometry x="480" y="1045" width="320" height="20" as="geometry" />
        </mxCell>
        <mxCell id="N6iVnPfqX5solzvo0P7z-498" value="Trương Công Trí &amp; Phạm Hữu Tuân &amp; Võ Trần Anh Quân" style="" vertex="1" parent="1">
          <mxGeometry x="480" y="1105" width="320" height="20" as="geometry" />
        </mxCell>
        <mxCell id="N6iVnPfqX5solzvo0P7z-499" value="Trương Công Trí &amp; Phạm Hữu Tuân &amp; Võ Trần Anh Quân" style="" vertex="1" parent="1">
          <mxGeometry x="480" y="1085" width="320" height="20" as="geometry" />
        </mxCell>
        <mxCell id="N6iVnPfqX5solzvo0P7z-500" value="Trương Công Trí &amp; Phạm Hữu Tuân" style="" vertex="1" parent="1">
          <mxGeometry x="480" y="1065" width="320" height="20" as="geometry" />
        </mxCell>
        <mxCell id="N6iVnPfqX5solzvo0P7z-503" value="10/1/2025" style="fontSize=13;" vertex="1" parent="1">
          <mxGeometry x="800" y="525" width="120" height="20" as="geometry" />
        </mxCell>
        <mxCell id="N6iVnPfqX5solzvo0P7z-504" value="12/1/2025" style="fontSize=13;" vertex="1" parent="1">
          <mxGeometry x="800" y="545" width="120" height="20" as="geometry" />
        </mxCell>
        <mxCell id="N6iVnPfqX5solzvo0P7z-505" value="16/1/2025" style="fontSize=13;" vertex="1" parent="1">
          <mxGeometry x="800" y="565" width="120" height="20" as="geometry" />
        </mxCell>
        <mxCell id="N6iVnPfqX5solzvo0P7z-506" value="18/1/2025" style="fontSize=13;" vertex="1" parent="1">
          <mxGeometry x="800" y="585" width="120" height="20" as="geometry" />
        </mxCell>
        <mxCell id="N6iVnPfqX5solzvo0P7z-507" value="14/2/2025" style="fontSize=13;" vertex="1" parent="1">
          <mxGeometry x="800" y="605" width="120" height="20" as="geometry" />
        </mxCell>
        <mxCell id="N6iVnPfqX5solzvo0P7z-509" value="9/1/2025" style="fontSize=13;" vertex="1" parent="1">
          <mxGeometry x="920" y="505" width="120" height="20" as="geometry" />
        </mxCell>
        <mxCell id="N6iVnPfqX5solzvo0P7z-510" value="11/1/2025" style="fontSize=13;" vertex="1" parent="1">
          <mxGeometry x="920" y="525" width="120" height="20" as="geometry" />
        </mxCell>
        <mxCell id="N6iVnPfqX5solzvo0P7z-511" value="15/1/2025" style="fontSize=13;" vertex="1" parent="1">
          <mxGeometry x="920" y="545" width="120" height="20" as="geometry" />
        </mxCell>
        <mxCell id="N6iVnPfqX5solzvo0P7z-512" value="17/1/2025" style="fontSize=13;" vertex="1" parent="1">
          <mxGeometry x="920" y="565" width="120" height="20" as="geometry" />
        </mxCell>
        <mxCell id="N6iVnPfqX5solzvo0P7z-513" value="19/1/2025" style="fontSize=13;" vertex="1" parent="1">
          <mxGeometry x="920" y="585" width="120" height="20" as="geometry" />
        </mxCell>
        <mxCell id="N6iVnPfqX5solzvo0P7z-514" value="14/2/2025" style="fontSize=13;" vertex="1" parent="1">
          <mxGeometry x="920" y="605" width="120" height="20" as="geometry" />
        </mxCell>
        <mxCell id="N6iVnPfqX5solzvo0P7z-515" value="" style="strokeColor=#82b366;fillColor=#d5e8d4;fontSize=13;" vertex="1" parent="1">
          <mxGeometry x="920" y="625" width="120" height="20" as="geometry" />
        </mxCell>
        <mxCell id="N6iVnPfqX5solzvo0P7z-516" value="" style="strokeColor=#82b366;fillColor=#d5e8d4;fontSize=13;" vertex="1" parent="1">
          <mxGeometry x="800" y="625" width="120" height="20" as="geometry" />
        </mxCell>
        <mxCell id="N6iVnPfqX5solzvo0P7z-517" value="15/2/2025" style="fontSize=13;" vertex="1" parent="1">
          <mxGeometry x="800" y="645" width="120" height="20" as="geometry" />
        </mxCell>
        <mxCell id="N6iVnPfqX5solzvo0P7z-518" value="15/2/2025" style="fontSize=13;" vertex="1" parent="1">
          <mxGeometry x="800" y="665" width="120" height="20" as="geometry" />
        </mxCell>
        <mxCell id="N6iVnPfqX5solzvo0P7z-519" value="20/2/2025" style="fontSize=13;" vertex="1" parent="1">
          <mxGeometry x="800" y="685" width="120" height="20" as="geometry" />
        </mxCell>
        <mxCell id="N6iVnPfqX5solzvo0P7z-520" value="24/2/2025" style="fontSize=13;" vertex="1" parent="1">
          <mxGeometry x="800" y="705" width="120" height="20" as="geometry" />
        </mxCell>
        <mxCell id="N6iVnPfqX5solzvo0P7z-523" value="17/2/2025" style="fontSize=13;" vertex="1" parent="1">
          <mxGeometry x="920" y="645" width="120" height="20" as="geometry" />
        </mxCell>
        <mxCell id="N6iVnPfqX5solzvo0P7z-524" value="17/2/2025" style="fontSize=13;" vertex="1" parent="1">
          <mxGeometry x="920" y="665" width="120" height="20" as="geometry" />
        </mxCell>
        <mxCell id="N6iVnPfqX5solzvo0P7z-525" value="21/2/2025" style="fontSize=13;" vertex="1" parent="1">
          <mxGeometry x="920" y="685" width="120" height="20" as="geometry" />
        </mxCell>
        <mxCell id="N6iVnPfqX5solzvo0P7z-526" value="25/2/2025" style="fontSize=13;" vertex="1" parent="1">
          <mxGeometry x="920" y="705" width="120" height="20" as="geometry" />
        </mxCell>
        <mxCell id="N6iVnPfqX5solzvo0P7z-529" value="" style="strokeColor=#82b366;fillColor=#d5e8d4;fontSize=13;" vertex="1" parent="1">
          <mxGeometry x="920" y="845" width="120" height="20" as="geometry" />
        </mxCell>
        <mxCell id="N6iVnPfqX5solzvo0P7z-530" value="" style="strokeColor=#82b366;fillColor=#d5e8d4;fontSize=13;" vertex="1" parent="1">
          <mxGeometry x="800" y="845" width="120" height="20" as="geometry" />
        </mxCell>
        <mxCell id="N6iVnPfqX5solzvo0P7z-531" value="27/3/2025" style="fontSize=13;" vertex="1" parent="1">
          <mxGeometry x="800" y="865" width="120" height="20" as="geometry" />
        </mxCell>
        <mxCell id="N6iVnPfqX5solzvo0P7z-532" value="3/4/2025" style="fontSize=13;" vertex="1" parent="1">
          <mxGeometry x="800" y="885" width="120" height="20" as="geometry" />
        </mxCell>
        <mxCell id="N6iVnPfqX5solzvo0P7z-533" value="6/4/2025" style="fontSize=13;" vertex="1" parent="1">
          <mxGeometry x="800" y="905" width="120" height="20" as="geometry" />
        </mxCell>
        <mxCell id="N6iVnPfqX5solzvo0P7z-534" value="10/4/2025" style="fontSize=13;" vertex="1" parent="1">
          <mxGeometry x="800" y="925" width="120" height="20" as="geometry" />
        </mxCell>
        <mxCell id="N6iVnPfqX5solzvo0P7z-535" value="14/4/2025" style="fontSize=13;" vertex="1" parent="1">
          <mxGeometry x="800" y="945" width="120" height="20" as="geometry" />
        </mxCell>
        <mxCell id="N6iVnPfqX5solzvo0P7z-536" value="16/4/2025" style="fontSize=13;" vertex="1" parent="1">
          <mxGeometry x="800" y="965" width="120" height="20" as="geometry" />
        </mxCell>
        <mxCell id="N6iVnPfqX5solzvo0P7z-537" value="30/3/2025" style="fontSize=13;" vertex="1" parent="1">
          <mxGeometry x="920" y="865" width="120" height="20" as="geometry" />
        </mxCell>
        <mxCell id="N6iVnPfqX5solzvo0P7z-538" value="5/4/2025" style="fontSize=13;" vertex="1" parent="1">
          <mxGeometry x="920" y="885" width="120" height="20" as="geometry" />
        </mxCell>
        <mxCell id="N6iVnPfqX5solzvo0P7z-539" value="8/4/2025" style="fontSize=13;" vertex="1" parent="1">
          <mxGeometry x="920" y="905" width="120" height="20" as="geometry" />
        </mxCell>
        <mxCell id="N6iVnPfqX5solzvo0P7z-540" value="12/4/2025" style="fontSize=13;" vertex="1" parent="1">
          <mxGeometry x="920" y="925" width="120" height="20" as="geometry" />
        </mxCell>
        <mxCell id="N6iVnPfqX5solzvo0P7z-541" value="15/4/2025" style="fontSize=13;" vertex="1" parent="1">
          <mxGeometry x="920" y="945" width="120" height="20" as="geometry" />
        </mxCell>
        <mxCell id="N6iVnPfqX5solzvo0P7z-542" value="17/4/2025" style="fontSize=13;" vertex="1" parent="1">
          <mxGeometry x="920" y="965" width="120" height="20" as="geometry" />
        </mxCell>
        <mxCell id="N6iVnPfqX5solzvo0P7z-543" value="" style="strokeColor=#82b366;fillColor=#d5e8d4;fontSize=13;" vertex="1" parent="1">
          <mxGeometry x="920" y="985" width="120" height="20" as="geometry" />
        </mxCell>
        <mxCell id="N6iVnPfqX5solzvo0P7z-544" value="" style="strokeColor=#82b366;fillColor=#d5e8d4;fontSize=13;" vertex="1" parent="1">
          <mxGeometry x="800" y="985" width="120" height="20" as="geometry" />
        </mxCell>
        <mxCell id="N6iVnPfqX5solzvo0P7z-545" value="20/4/2025" style="fontSize=13;" vertex="1" parent="1">
          <mxGeometry x="800" y="1005" width="120" height="20" as="geometry" />
        </mxCell>
        <mxCell id="N6iVnPfqX5solzvo0P7z-546" value="22/4/2025" style="fontSize=13;" vertex="1" parent="1">
          <mxGeometry x="800" y="1025" width="120" height="20" as="geometry" />
        </mxCell>
        <mxCell id="N6iVnPfqX5solzvo0P7z-547" value="24/4/2025" style="fontSize=13;" vertex="1" parent="1">
          <mxGeometry x="800" y="1045" width="120" height="20" as="geometry" />
        </mxCell>
        <mxCell id="N6iVnPfqX5solzvo0P7z-548" value="27/4/2025" style="fontSize=13;" vertex="1" parent="1">
          <mxGeometry x="800" y="1065" width="120" height="20" as="geometry" />
        </mxCell>
        <mxCell id="N6iVnPfqX5solzvo0P7z-549" value="29/4/2025" style="fontSize=13;" vertex="1" parent="1">
          <mxGeometry x="800" y="1085" width="120" height="20" as="geometry" />
        </mxCell>
        <mxCell id="N6iVnPfqX5solzvo0P7z-550" value="3/5/2025" style="fontSize=13;" vertex="1" parent="1">
          <mxGeometry x="800" y="1105" width="120" height="20" as="geometry" />
        </mxCell>
        <mxCell id="N6iVnPfqX5solzvo0P7z-551" value="21/4/2025" style="fontSize=13;" vertex="1" parent="1">
          <mxGeometry x="920" y="1005" width="120" height="20" as="geometry" />
        </mxCell>
        <mxCell id="N6iVnPfqX5solzvo0P7z-552" value="23/4/2025" style="fontSize=13;" vertex="1" parent="1">
          <mxGeometry x="920" y="1025" width="120" height="20" as="geometry" />
        </mxCell>
        <mxCell id="N6iVnPfqX5solzvo0P7z-553" value="26/4/2025" style="fontSize=13;" vertex="1" parent="1">
          <mxGeometry x="920" y="1045" width="120" height="20" as="geometry" />
        </mxCell>
        <mxCell id="N6iVnPfqX5solzvo0P7z-554" value="28/4/2025" style="fontSize=13;" vertex="1" parent="1">
          <mxGeometry x="920" y="1065" width="120" height="20" as="geometry" />
        </mxCell>
        <mxCell id="N6iVnPfqX5solzvo0P7z-555" value="1/5/2025" style="fontSize=13;" vertex="1" parent="1">
          <mxGeometry x="920" y="1085" width="120" height="20" as="geometry" />
        </mxCell>
        <mxCell id="N6iVnPfqX5solzvo0P7z-556" value="3/5/2025" style="fontSize=13;" vertex="1" parent="1">
          <mxGeometry x="920" y="1105" width="120" height="20" as="geometry" />
        </mxCell>
        <mxCell id="N6iVnPfqX5solzvo0P7z-557" value="" style="strokeColor=#82b366;fillColor=#d5e8d4;fontSize=13;" vertex="1" parent="1">
          <mxGeometry x="920" y="725" width="120" height="20" as="geometry" />
        </mxCell>
        <mxCell id="N6iVnPfqX5solzvo0P7z-558" value="" style="strokeColor=#82b366;fillColor=#d5e8d4;fontSize=13;" vertex="1" parent="1">
          <mxGeometry x="800" y="725" width="120" height="20" as="geometry" />
        </mxCell>
        <mxCell id="N6iVnPfqX5solzvo0P7z-559" value="1/3/2025" style="fontSize=13;" vertex="1" parent="1">
          <mxGeometry x="800" y="745" width="120" height="20" as="geometry" />
        </mxCell>
        <mxCell id="N6iVnPfqX5solzvo0P7z-560" value="7/3/2025" style="fontSize=13;" vertex="1" parent="1">
          <mxGeometry x="800" y="765" width="120" height="20" as="geometry" />
        </mxCell>
        <mxCell id="N6iVnPfqX5solzvo0P7z-561" value="13/3/2025" style="fontSize=13;" vertex="1" parent="1">
          <mxGeometry x="800" y="785" width="120" height="20" as="geometry" />
        </mxCell>
        <mxCell id="N6iVnPfqX5solzvo0P7z-562" value="15/3/2025" style="fontSize=13;" vertex="1" parent="1">
          <mxGeometry x="800" y="805" width="120" height="20" as="geometry" />
        </mxCell>
        <mxCell id="N6iVnPfqX5solzvo0P7z-563" value="4/3/2025" style="fontSize=13;" vertex="1" parent="1">
          <mxGeometry x="920" y="745" width="120" height="20" as="geometry" />
        </mxCell>
        <mxCell id="N6iVnPfqX5solzvo0P7z-564" value="8/3/2025" style="fontSize=13;" vertex="1" parent="1">
          <mxGeometry x="920" y="765" width="120" height="20" as="geometry" />
        </mxCell>
        <mxCell id="N6iVnPfqX5solzvo0P7z-565" value="14/3/2025" style="fontSize=13;" vertex="1" parent="1">
          <mxGeometry x="920" y="785" width="120" height="20" as="geometry" />
        </mxCell>
        <mxCell id="N6iVnPfqX5solzvo0P7z-566" value="16/3/2025" style="fontSize=13;" vertex="1" parent="1">
          <mxGeometry x="920" y="805" width="120" height="20" as="geometry" />
        </mxCell>
        <mxCell id="N6iVnPfqX5solzvo0P7z-567" value="17/3/2025" style="fontSize=13;" vertex="1" parent="1">
          <mxGeometry x="800" y="825" width="120" height="20" as="geometry" />
        </mxCell>
        <mxCell id="N6iVnPfqX5solzvo0P7z-568" value="18/3/2025" style="fontSize=13;" vertex="1" parent="1">
          <mxGeometry x="920" y="825" width="120" height="20" as="geometry" />
        </mxCell>
        <mxCell id="N6iVnPfqX5solzvo0P7z-569" value="1" style="fontSize=13;" vertex="1" parent="1">
          <mxGeometry x="1040" y="505" width="80" height="20" as="geometry" />
        </mxCell>
        <mxCell id="N6iVnPfqX5solzvo0P7z-570" value="2" style="fontSize=13;" vertex="1" parent="1">
          <mxGeometry x="1040" y="525" width="80" height="20" as="geometry" />
        </mxCell>
        <mxCell id="N6iVnPfqX5solzvo0P7z-571" value="4" style="fontSize=13;" vertex="1" parent="1">
          <mxGeometry x="1040" y="545" width="80" height="20" as="geometry" />
        </mxCell>
        <mxCell id="N6iVnPfqX5solzvo0P7z-572" value="2" style="fontSize=13;" vertex="1" parent="1">
          <mxGeometry x="1040" y="565" width="80" height="20" as="geometry" />
        </mxCell>
        <mxCell id="N6iVnPfqX5solzvo0P7z-573" value="2" style="fontSize=13;" vertex="1" parent="1">
          <mxGeometry x="1040" y="585" width="80" height="20" as="geometry" />
        </mxCell>
        <mxCell id="N6iVnPfqX5solzvo0P7z-574" value="1" style="fontSize=13;" vertex="1" parent="1">
          <mxGeometry x="1040" y="605" width="80" height="20" as="geometry" />
        </mxCell>
        <mxCell id="N6iVnPfqX5solzvo0P7z-575" value="" style="strokeColor=#82b366;fillColor=#d5e8d4;fontSize=13;" vertex="1" parent="1">
          <mxGeometry x="1040" y="625" width="80" height="20" as="geometry" />
        </mxCell>
        <mxCell id="N6iVnPfqX5solzvo0P7z-576" value="3" style="fontSize=13;" vertex="1" parent="1">
          <mxGeometry x="1040" y="645" width="80" height="20" as="geometry" />
        </mxCell>
        <mxCell id="N6iVnPfqX5solzvo0P7z-577" value="3" style="fontSize=13;" vertex="1" parent="1">
          <mxGeometry x="1040" y="665" width="80" height="20" as="geometry" />
        </mxCell>
        <mxCell id="N6iVnPfqX5solzvo0P7z-578" value="2" style="fontSize=13;" vertex="1" parent="1">
          <mxGeometry x="1040" y="685" width="80" height="20" as="geometry" />
        </mxCell>
        <mxCell id="N6iVnPfqX5solzvo0P7z-579" value="2" style="fontSize=13;" vertex="1" parent="1">
          <mxGeometry x="1040" y="705" width="80" height="20" as="geometry" />
        </mxCell>
        <mxCell id="N6iVnPfqX5solzvo0P7z-580" value="" style="strokeColor=#82b366;fillColor=#d5e8d4;fontSize=13;" vertex="1" parent="1">
          <mxGeometry x="1040" y="725" width="80" height="20" as="geometry" />
        </mxCell>
        <mxCell id="N6iVnPfqX5solzvo0P7z-581" value="4" style="fontSize=13;" vertex="1" parent="1">
          <mxGeometry x="1040" y="745" width="80" height="20" as="geometry" />
        </mxCell>
        <mxCell id="N6iVnPfqX5solzvo0P7z-582" value="2" style="fontSize=13;" vertex="1" parent="1">
          <mxGeometry x="1040" y="765" width="80" height="20" as="geometry" />
        </mxCell>
        <mxCell id="N6iVnPfqX5solzvo0P7z-583" value="2" style="fontSize=13;" vertex="1" parent="1">
          <mxGeometry x="1040" y="785" width="80" height="20" as="geometry" />
        </mxCell>
        <mxCell id="N6iVnPfqX5solzvo0P7z-584" value="2" style="fontSize=13;" vertex="1" parent="1">
          <mxGeometry x="1040" y="805" width="80" height="20" as="geometry" />
        </mxCell>
        <mxCell id="N6iVnPfqX5solzvo0P7z-585" value="2" style="fontSize=13;" vertex="1" parent="1">
          <mxGeometry x="1040" y="825" width="80" height="20" as="geometry" />
        </mxCell>
        <mxCell id="N6iVnPfqX5solzvo0P7z-586" value="" style="strokeColor=#82b366;fillColor=#d5e8d4;fontSize=13;" vertex="1" parent="1">
          <mxGeometry x="1040" y="845" width="80" height="20" as="geometry" />
        </mxCell>
        <mxCell id="N6iVnPfqX5solzvo0P7z-587" value="4" style="fontSize=13;" vertex="1" parent="1">
          <mxGeometry x="1040" y="865" width="80" height="20" as="geometry" />
        </mxCell>
        <mxCell id="N6iVnPfqX5solzvo0P7z-588" value="3" style="fontSize=13;" vertex="1" parent="1">
          <mxGeometry x="1040" y="885" width="80" height="20" as="geometry" />
        </mxCell>
        <mxCell id="N6iVnPfqX5solzvo0P7z-589" value="3" style="fontSize=13;" vertex="1" parent="1">
          <mxGeometry x="1040" y="905" width="80" height="20" as="geometry" />
        </mxCell>
        <mxCell id="N6iVnPfqX5solzvo0P7z-590" value="3" style="fontSize=13;" vertex="1" parent="1">
          <mxGeometry x="1040" y="925" width="80" height="20" as="geometry" />
        </mxCell>
        <mxCell id="N6iVnPfqX5solzvo0P7z-591" value="2" style="fontSize=13;" vertex="1" parent="1">
          <mxGeometry x="1040" y="945" width="80" height="20" as="geometry" />
        </mxCell>
        <mxCell id="N6iVnPfqX5solzvo0P7z-592" value="2" style="fontSize=13;" vertex="1" parent="1">
          <mxGeometry x="1040" y="965" width="80" height="20" as="geometry" />
        </mxCell>
        <mxCell id="N6iVnPfqX5solzvo0P7z-593" value="" style="strokeColor=#82b366;fillColor=#d5e8d4;fontSize=13;" vertex="1" parent="1">
          <mxGeometry x="1040" y="985" width="80" height="20" as="geometry" />
        </mxCell>
        <mxCell id="N6iVnPfqX5solzvo0P7z-594" value="2" style="fontSize=13;" vertex="1" parent="1">
          <mxGeometry x="1040" y="1005" width="80" height="20" as="geometry" />
        </mxCell>
        <mxCell id="N6iVnPfqX5solzvo0P7z-595" value="2" style="fontSize=13;" vertex="1" parent="1">
          <mxGeometry x="1040" y="1025" width="80" height="20" as="geometry" />
        </mxCell>
        <mxCell id="N6iVnPfqX5solzvo0P7z-596" value="3" style="fontSize=13;" vertex="1" parent="1">
          <mxGeometry x="1040" y="1045" width="80" height="20" as="geometry" />
        </mxCell>
        <mxCell id="N6iVnPfqX5solzvo0P7z-597" value="2" style="fontSize=13;" vertex="1" parent="1">
          <mxGeometry x="1040" y="1065" width="80" height="20" as="geometry" />
        </mxCell>
        <mxCell id="N6iVnPfqX5solzvo0P7z-598" value="3" style="fontSize=13;" vertex="1" parent="1">
          <mxGeometry x="1040" y="1085" width="80" height="20" as="geometry" />
        </mxCell>
        <mxCell id="N6iVnPfqX5solzvo0P7z-599" value="1" style="fontSize=13;" vertex="1" parent="1">
          <mxGeometry x="1040" y="1105" width="80" height="20" as="geometry" />
        </mxCell>
        <mxCell id="N6iVnPfqX5solzvo0P7z-601" value="100%" style="fontSize=13;" vertex="1" parent="1">
          <mxGeometry x="1120" y="505" width="80" height="20" as="geometry" />
        </mxCell>
        <mxCell id="N6iVnPfqX5solzvo0P7z-602" value="100%" style="fontSize=13;" vertex="1" parent="1">
          <mxGeometry x="1120" y="525" width="80" height="20" as="geometry" />
        </mxCell>
        <mxCell id="N6iVnPfqX5solzvo0P7z-603" value="100%" style="fontSize=13;" vertex="1" parent="1">
          <mxGeometry x="1120" y="545" width="80" height="20" as="geometry" />
        </mxCell>
        <mxCell id="N6iVnPfqX5solzvo0P7z-604" value="100%" style="fontSize=13;" vertex="1" parent="1">
          <mxGeometry x="1120" y="565" width="80" height="20" as="geometry" />
        </mxCell>
        <mxCell id="N6iVnPfqX5solzvo0P7z-605" value="100%" style="fontSize=13;" vertex="1" parent="1">
          <mxGeometry x="1120" y="585" width="80" height="20" as="geometry" />
        </mxCell>
        <mxCell id="N6iVnPfqX5solzvo0P7z-606" value="100%" style="fontSize=13;" vertex="1" parent="1">
          <mxGeometry x="1120" y="605" width="80" height="20" as="geometry" />
        </mxCell>
        <mxCell id="N6iVnPfqX5solzvo0P7z-608" value="" style="strokeColor=#82b366;fillColor=#d5e8d4;fontSize=13;" vertex="1" parent="1">
          <mxGeometry x="1120" y="625" width="80" height="20" as="geometry" />
        </mxCell>
        <mxCell id="N6iVnPfqX5solzvo0P7z-609" value="100%" style="fontSize=13;" vertex="1" parent="1">
          <mxGeometry x="1120" y="645" width="80" height="20" as="geometry" />
        </mxCell>
        <mxCell id="N6iVnPfqX5solzvo0P7z-610" value="100%" style="fontSize=13;" vertex="1" parent="1">
          <mxGeometry x="1120" y="665" width="80" height="20" as="geometry" />
        </mxCell>
        <mxCell id="N6iVnPfqX5solzvo0P7z-611" value="100%" style="fontSize=13;" vertex="1" parent="1">
          <mxGeometry x="1120" y="685" width="80" height="20" as="geometry" />
        </mxCell>
        <mxCell id="N6iVnPfqX5solzvo0P7z-612" value="100%" style="fontSize=13;" vertex="1" parent="1">
          <mxGeometry x="1120" y="705" width="80" height="20" as="geometry" />
        </mxCell>
        <mxCell id="N6iVnPfqX5solzvo0P7z-613" value="" style="strokeColor=#82b366;fillColor=#d5e8d4;fontSize=13;" vertex="1" parent="1">
          <mxGeometry x="1120" y="725" width="80" height="20" as="geometry" />
        </mxCell>
        <mxCell id="N6iVnPfqX5solzvo0P7z-614" value="100%" style="fontSize=13;" vertex="1" parent="1">
          <mxGeometry x="1120" y="745" width="80" height="20" as="geometry" />
        </mxCell>
        <mxCell id="N6iVnPfqX5solzvo0P7z-615" value="100%" style="fontSize=13;" vertex="1" parent="1">
          <mxGeometry x="1120" y="765" width="80" height="20" as="geometry" />
        </mxCell>
        <mxCell id="N6iVnPfqX5solzvo0P7z-616" value="100%" style="fontSize=13;" vertex="1" parent="1">
          <mxGeometry x="1120" y="785" width="80" height="20" as="geometry" />
        </mxCell>
        <mxCell id="N6iVnPfqX5solzvo0P7z-617" value="100%" style="fontSize=13;" vertex="1" parent="1">
          <mxGeometry x="1120" y="805" width="80" height="20" as="geometry" />
        </mxCell>
        <mxCell id="N6iVnPfqX5solzvo0P7z-618" value="100%" style="fontSize=13;" vertex="1" parent="1">
          <mxGeometry x="1120" y="825" width="80" height="20" as="geometry" />
        </mxCell>
        <mxCell id="N6iVnPfqX5solzvo0P7z-619" value="" style="strokeColor=#82b366;fillColor=#d5e8d4;fontSize=13;" vertex="1" parent="1">
          <mxGeometry x="1120" y="845" width="80" height="20" as="geometry" />
        </mxCell>
        <mxCell id="N6iVnPfqX5solzvo0P7z-620" value="100%" style="fontSize=13;" vertex="1" parent="1">
          <mxGeometry x="1120" y="865" width="80" height="20" as="geometry" />
        </mxCell>
        <mxCell id="N6iVnPfqX5solzvo0P7z-621" value="100%" style="fontSize=13;" vertex="1" parent="1">
          <mxGeometry x="1120" y="885" width="80" height="20" as="geometry" />
        </mxCell>
        <mxCell id="N6iVnPfqX5solzvo0P7z-622" value="100%" style="fontSize=13;" vertex="1" parent="1">
          <mxGeometry x="1120" y="905" width="80" height="20" as="geometry" />
        </mxCell>
        <mxCell id="N6iVnPfqX5solzvo0P7z-623" value="100%" style="fontSize=13;" vertex="1" parent="1">
          <mxGeometry x="1120" y="925" width="80" height="20" as="geometry" />
        </mxCell>
        <mxCell id="N6iVnPfqX5solzvo0P7z-624" value="100%" style="fontSize=13;" vertex="1" parent="1">
          <mxGeometry x="1120" y="945" width="80" height="20" as="geometry" />
        </mxCell>
        <mxCell id="N6iVnPfqX5solzvo0P7z-625" value="100%" style="fontSize=13;" vertex="1" parent="1">
          <mxGeometry x="1120" y="965" width="80" height="20" as="geometry" />
        </mxCell>
        <mxCell id="N6iVnPfqX5solzvo0P7z-626" value="" style="strokeColor=#82b366;fillColor=#d5e8d4;fontSize=13;" vertex="1" parent="1">
          <mxGeometry x="1120" y="985" width="80" height="20" as="geometry" />
        </mxCell>
        <mxCell id="N6iVnPfqX5solzvo0P7z-627" value="100%" style="fontSize=13;" vertex="1" parent="1">
          <mxGeometry x="1120" y="1005" width="80" height="20" as="geometry" />
        </mxCell>
        <mxCell id="N6iVnPfqX5solzvo0P7z-628" value="100%" style="fontSize=13;" vertex="1" parent="1">
          <mxGeometry x="1120" y="1025" width="80" height="20" as="geometry" />
        </mxCell>
        <mxCell id="N6iVnPfqX5solzvo0P7z-629" value="100%" style="fontSize=13;" vertex="1" parent="1">
          <mxGeometry x="1120" y="1045" width="80" height="20" as="geometry" />
        </mxCell>
        <mxCell id="N6iVnPfqX5solzvo0P7z-630" value="100%" style="fontSize=13;" vertex="1" parent="1">
          <mxGeometry x="1120" y="1065" width="80" height="20" as="geometry" />
        </mxCell>
        <mxCell id="N6iVnPfqX5solzvo0P7z-631" value="100%" style="fontSize=13;" vertex="1" parent="1">
          <mxGeometry x="1120" y="1085" width="80" height="20" as="geometry" />
        </mxCell>
        <mxCell id="N6iVnPfqX5solzvo0P7z-632" value="100%" style="fontSize=13;" vertex="1" parent="1">
          <mxGeometry x="1120" y="1105" width="80" height="20" as="geometry" />
        </mxCell>
        <mxCell id="N6iVnPfqX5solzvo0P7z-633" value="GIAI ĐOẠN 1" style="fillColor=#23445D;strokeColor=#FFFFFF;strokeWidth=2;fontColor=#FFFFFF;fontStyle=1" vertex="1" parent="1">
          <mxGeometry x="1721.75" y="410" width="378.25" height="30" as="geometry" />
        </mxCell>
        <mxCell id="N6iVnPfqX5solzvo0P7z-638" value="" style="shape=mxgraph.flowchart.process;fillColor=#AE4132;strokeColor=none;strokeWidth=2;opacity=50" vertex="1" parent="1">
          <mxGeometry x="1781.7500000000018" y="500.0000000000009" width="19.999999999998863" height="19.99999999999983" as="geometry" />
        </mxCell>
        <mxCell id="N6iVnPfqX5solzvo0P7z-639" value="" style="shape=mxgraph.flowchart.process;fillColor=#AE4132;strokeColor=none;strokeWidth=2;opacity=50" vertex="1" parent="1">
          <mxGeometry x="1801.7500000000018" y="520.0000000000009" width="19.999999999998863" height="19.99999999999983" as="geometry" />
        </mxCell>
        <mxCell id="N6iVnPfqX5solzvo0P7z-640" value="" style="shape=mxgraph.flowchart.process;fillColor=#AE4132;strokeColor=none;strokeWidth=2;opacity=50" vertex="1" parent="1">
          <mxGeometry x="1821.7500000000018" y="520.0000000000009" width="19.999999999998863" height="19.99999999999983" as="geometry" />
        </mxCell>
        <mxCell id="N6iVnPfqX5solzvo0P7z-641" value="" style="shape=mxgraph.flowchart.process;fillColor=#AE4132;strokeColor=none;strokeWidth=2;opacity=50" vertex="1" parent="1">
          <mxGeometry x="1901.7500000000018" y="540.0000000000009" width="19.999999999998863" height="19.99999999999983" as="geometry" />
        </mxCell>
        <mxCell id="N6iVnPfqX5solzvo0P7z-642" value="" style="shape=mxgraph.flowchart.process;fillColor=#AE4132;strokeColor=none;strokeWidth=2;opacity=50" vertex="1" parent="1">
          <mxGeometry x="1881.7500000000018" y="540.0000000000009" width="19.999999999998863" height="19.99999999999983" as="geometry" />
        </mxCell>
        <mxCell id="N6iVnPfqX5solzvo0P7z-643" value="" style="shape=mxgraph.flowchart.process;fillColor=#AE4132;strokeColor=none;strokeWidth=2;opacity=50" vertex="1" parent="1">
          <mxGeometry x="1861.7500000000018" y="540.0000000000009" width="19.999999999998863" height="19.99999999999983" as="geometry" />
        </mxCell>
        <mxCell id="N6iVnPfqX5solzvo0P7z-644" value="" style="shape=mxgraph.flowchart.process;fillColor=#AE4132;strokeColor=none;strokeWidth=2;opacity=50" vertex="1" parent="1">
          <mxGeometry x="1941.7500000000018" y="560.0000000000009" width="19.999999999998863" height="19.99999999999983" as="geometry" />
        </mxCell>
        <mxCell id="N6iVnPfqX5solzvo0P7z-645" value="" style="shape=mxgraph.flowchart.process;fillColor=#AE4132;strokeColor=none;strokeWidth=2;opacity=50" vertex="1" parent="1">
          <mxGeometry x="1921.7500000000018" y="560.0000000000009" width="19.999999999998863" height="19.99999999999983" as="geometry" />
        </mxCell>
        <mxCell id="N6iVnPfqX5solzvo0P7z-646" value="" style="shape=mxgraph.flowchart.process;fillColor=#AE4132;strokeColor=none;strokeWidth=2;opacity=50" vertex="1" parent="1">
          <mxGeometry x="1981.7500000000018" y="580.0000000000009" width="19.999999999998863" height="19.99999999999983" as="geometry" />
        </mxCell>
        <mxCell id="N6iVnPfqX5solzvo0P7z-647" value="" style="shape=mxgraph.flowchart.process;fillColor=#AE4132;strokeColor=none;strokeWidth=2;opacity=50" vertex="1" parent="1">
          <mxGeometry x="1961.7500000000018" y="580.0000000000009" width="19.999999999998863" height="19.99999999999983" as="geometry" />
        </mxCell>
        <mxCell id="N6iVnPfqX5solzvo0P7z-648" value="" style="shape=mxgraph.flowchart.process;fillColor=#AE4132;strokeColor=none;strokeWidth=2;opacity=50" vertex="1" parent="1">
          <mxGeometry x="2081.750000000002" y="600.0000000000009" width="19.999999999998863" height="19.99999999999983" as="geometry" />
        </mxCell>
        <mxCell id="N6iVnPfqX5solzvo0P7z-650" value="" style="shape=mxgraph.flowchart.process;fillColor=#AE4132;strokeColor=none;strokeWidth=2;opacity=50" vertex="1" parent="1">
          <mxGeometry x="2121.750000000002" y="640.0000000000009" width="19.999999999998863" height="19.99999999999983" as="geometry" />
        </mxCell>
        <mxCell id="N6iVnPfqX5solzvo0P7z-651" value="" style="shape=mxgraph.flowchart.process;fillColor=#AE4132;strokeColor=none;strokeWidth=2;opacity=50" vertex="1" parent="1">
          <mxGeometry x="2101.750000000002" y="640.0000000000009" width="19.999999999998863" height="19.99999999999983" as="geometry" />
        </mxCell>
        <mxCell id="N6iVnPfqX5solzvo0P7z-652" value="" style="shape=mxgraph.flowchart.process;fillColor=#AE4132;strokeColor=none;strokeWidth=2;opacity=50" vertex="1" parent="1">
          <mxGeometry x="2141.750000000002" y="640.0000000000009" width="19.999999999998863" height="19.99999999999983" as="geometry" />
        </mxCell>
        <mxCell id="N6iVnPfqX5solzvo0P7z-653" value="" style="shape=mxgraph.flowchart.process;fillColor=#AE4132;strokeColor=none;strokeWidth=2;opacity=50" vertex="1" parent="1">
          <mxGeometry x="2121.750000000002" y="660.0000000000009" width="19.999999999998863" height="19.99999999999983" as="geometry" />
        </mxCell>
        <mxCell id="N6iVnPfqX5solzvo0P7z-654" value="" style="shape=mxgraph.flowchart.process;fillColor=#AE4132;strokeColor=none;strokeWidth=2;opacity=50" vertex="1" parent="1">
          <mxGeometry x="2101.750000000002" y="660.0000000000009" width="19.999999999998863" height="19.99999999999983" as="geometry" />
        </mxCell>
        <mxCell id="N6iVnPfqX5solzvo0P7z-655" value="" style="shape=mxgraph.flowchart.process;fillColor=#AE4132;strokeColor=none;strokeWidth=2;opacity=50" vertex="1" parent="1">
          <mxGeometry x="2141.750000000002" y="660.0000000000009" width="19.999999999998863" height="19.99999999999983" as="geometry" />
        </mxCell>
        <mxCell id="N6iVnPfqX5solzvo0P7z-656" value="" style="shape=mxgraph.flowchart.process;fillColor=#AE4132;strokeColor=none;strokeWidth=2;opacity=50" vertex="1" parent="1">
          <mxGeometry x="2201.750000000002" y="680.0000000000009" width="19.999999999998863" height="19.99999999999983" as="geometry" />
        </mxCell>
        <mxCell id="N6iVnPfqX5solzvo0P7z-657" value="" style="shape=mxgraph.flowchart.process;fillColor=#AE4132;strokeColor=none;strokeWidth=2;opacity=50" vertex="1" parent="1">
          <mxGeometry x="2221.750000000002" y="680.0000000000009" width="19.999999999998863" height="19.99999999999983" as="geometry" />
        </mxCell>
        <mxCell id="N6iVnPfqX5solzvo0P7z-658" value="" style="shape=mxgraph.flowchart.process;fillColor=#AE4132;strokeColor=none;strokeWidth=2;opacity=50" vertex="1" parent="1">
          <mxGeometry x="2281.750000000002" y="700.0000000000009" width="19.999999999998863" height="19.99999999999983" as="geometry" />
        </mxCell>
        <mxCell id="N6iVnPfqX5solzvo0P7z-659" value="" style="shape=mxgraph.flowchart.process;fillColor=#AE4132;strokeColor=none;strokeWidth=2;opacity=50" vertex="1" parent="1">
          <mxGeometry x="2301.750000000002" y="700.0000000000009" width="19.999999999998863" height="19.99999999999983" as="geometry" />
        </mxCell>
        <mxCell id="N6iVnPfqX5solzvo0P7z-660" value="" style="shape=mxgraph.flowchart.process;fillColor=#AE4132;strokeColor=none;strokeWidth=2;opacity=50" vertex="1" parent="1">
          <mxGeometry x="2401.750000000002" y="740.0000000000009" width="19.999999999998863" height="19.99999999999983" as="geometry" />
        </mxCell>
        <mxCell id="N6iVnPfqX5solzvo0P7z-661" value="" style="shape=mxgraph.flowchart.process;fillColor=#AE4132;strokeColor=none;strokeWidth=2;opacity=50" vertex="1" parent="1">
          <mxGeometry x="2381.750000000002" y="740.0000000000009" width="19.999999999998863" height="19.99999999999983" as="geometry" />
        </mxCell>
        <mxCell id="N6iVnPfqX5solzvo0P7z-662" value="" style="shape=mxgraph.flowchart.process;fillColor=#AE4132;strokeColor=none;strokeWidth=2;opacity=50" vertex="1" parent="1">
          <mxGeometry x="2441.750000000002" y="740.0000000000009" width="19.999999999998863" height="19.99999999999983" as="geometry" />
        </mxCell>
        <mxCell id="N6iVnPfqX5solzvo0P7z-663" value="" style="shape=mxgraph.flowchart.process;fillColor=#AE4132;strokeColor=none;strokeWidth=2;opacity=50" vertex="1" parent="1">
          <mxGeometry x="2421.750000000002" y="740.0000000000009" width="19.999999999998863" height="19.99999999999983" as="geometry" />
        </mxCell>
        <mxCell id="N6iVnPfqX5solzvo0P7z-664" value="" style="shape=mxgraph.flowchart.process;fillColor=#AE4132;strokeColor=none;strokeWidth=2;opacity=50" vertex="1" parent="1">
          <mxGeometry x="2521.750000000002" y="760.0000000000009" width="19.999999999998863" height="19.99999999999983" as="geometry" />
        </mxCell>
        <mxCell id="N6iVnPfqX5solzvo0P7z-665" value="" style="shape=mxgraph.flowchart.process;fillColor=#AE4132;strokeColor=none;strokeWidth=2;opacity=50" vertex="1" parent="1">
          <mxGeometry x="2501.750000000002" y="760.0000000000009" width="19.999999999998863" height="19.99999999999983" as="geometry" />
        </mxCell>
        <mxCell id="N6iVnPfqX5solzvo0P7z-666" value="" style="shape=mxgraph.flowchart.process;fillColor=#AE4132;strokeColor=none;strokeWidth=2;opacity=50" vertex="1" parent="1">
          <mxGeometry x="2641.750000000002" y="780.0000000000009" width="19.999999999998863" height="19.99999999999983" as="geometry" />
        </mxCell>
        <mxCell id="N6iVnPfqX5solzvo0P7z-667" value="" style="shape=mxgraph.flowchart.process;fillColor=#AE4132;strokeColor=none;strokeWidth=2;opacity=50" vertex="1" parent="1">
          <mxGeometry x="2621.750000000002" y="780.0000000000009" width="19.999999999998863" height="19.99999999999983" as="geometry" />
        </mxCell>
        <mxCell id="N6iVnPfqX5solzvo0P7z-669" value="" style="shape=mxgraph.flowchart.process;fillColor=#AE4132;strokeColor=none;strokeWidth=2;opacity=50" vertex="1" parent="1">
          <mxGeometry x="2660.000000000002" y="800.0000000000009" width="19.999999999998863" height="19.99999999999983" as="geometry" />
        </mxCell>
        <mxCell id="N6iVnPfqX5solzvo0P7z-673" value="" style="shape=mxgraph.flowchart.process;fillColor=#AE4132;strokeColor=none;strokeWidth=2;opacity=50" vertex="1" parent="1">
          <mxGeometry x="2680.000000000002" y="800.0000000000009" width="19.999999999998863" height="19.99999999999983" as="geometry" />
        </mxCell>
        <mxCell id="N6iVnPfqX5solzvo0P7z-674" value="" style="strokeColor=#DEEDFF" vertex="1" parent="1">
          <mxGeometry x="2703.5" y="480" width="20" height="640" as="geometry" />
        </mxCell>
        <mxCell id="N6iVnPfqX5solzvo0P7z-675" value="" style="strokeColor=#DEEDFF" vertex="1" parent="1">
          <mxGeometry x="2723.5" y="480" width="20" height="640" as="geometry" />
        </mxCell>
        <mxCell id="N6iVnPfqX5solzvo0P7z-676" value="" style="strokeColor=#DEEDFF" vertex="1" parent="1">
          <mxGeometry x="2743.5" y="480" width="20" height="640" as="geometry" />
        </mxCell>
        <mxCell id="N6iVnPfqX5solzvo0P7z-677" value="" style="strokeColor=#DEEDFF" vertex="1" parent="1">
          <mxGeometry x="2763.5" y="480" width="20" height="640" as="geometry" />
        </mxCell>
        <mxCell id="N6iVnPfqX5solzvo0P7z-678" value="" style="strokeColor=#DEEDFF" vertex="1" parent="1">
          <mxGeometry x="2783.5" y="480" width="20" height="640" as="geometry" />
        </mxCell>
        <mxCell id="N6iVnPfqX5solzvo0P7z-679" value="" style="strokeColor=#DEEDFF;fillColor=#D4E1FF" vertex="1" parent="1">
          <mxGeometry x="2803.5" y="480" width="20" height="640" as="geometry" />
        </mxCell>
        <mxCell id="N6iVnPfqX5solzvo0P7z-680" value="" style="strokeColor=#DEEDFF;fillColor=#D4E1FF" vertex="1" parent="1">
          <mxGeometry x="2823.5" y="480" width="20" height="640" as="geometry" />
        </mxCell>
        <mxCell id="N6iVnPfqX5solzvo0P7z-681" value="" style="strokeColor=#DEEDFF" vertex="1" parent="1">
          <mxGeometry x="3310" y="480" width="20" height="640" as="geometry" />
        </mxCell>
        <mxCell id="N6iVnPfqX5solzvo0P7z-682" value="" style="strokeColor=#DEEDFF" vertex="1" parent="1">
          <mxGeometry x="3330" y="480" width="20" height="640" as="geometry" />
        </mxCell>
        <mxCell id="N6iVnPfqX5solzvo0P7z-683" value="" style="strokeColor=#DEEDFF" vertex="1" parent="1">
          <mxGeometry x="3350" y="480" width="20" height="640" as="geometry" />
        </mxCell>
        <mxCell id="N6iVnPfqX5solzvo0P7z-684" value="" style="strokeColor=#DEEDFF" vertex="1" parent="1">
          <mxGeometry x="3370" y="480" width="20" height="640" as="geometry" />
        </mxCell>
        <mxCell id="N6iVnPfqX5solzvo0P7z-685" value="" style="strokeColor=#DEEDFF" vertex="1" parent="1">
          <mxGeometry x="3390" y="480" width="20" height="640" as="geometry" />
        </mxCell>
        <mxCell id="N6iVnPfqX5solzvo0P7z-686" value="" style="strokeColor=#DEEDFF;fillColor=#D4E1FF" vertex="1" parent="1">
          <mxGeometry x="3410" y="480" width="20" height="640" as="geometry" />
        </mxCell>
        <mxCell id="N6iVnPfqX5solzvo0P7z-687" value="" style="strokeColor=#DEEDFF;fillColor=#D4E1FF" vertex="1" parent="1">
          <mxGeometry x="3430" y="480" width="20" height="640" as="geometry" />
        </mxCell>
        <mxCell id="N6iVnPfqX5solzvo0P7z-688" value="" style="strokeColor=#DEEDFF" vertex="1" parent="1">
          <mxGeometry x="3450" y="480" width="20" height="640" as="geometry" />
        </mxCell>
        <mxCell id="N6iVnPfqX5solzvo0P7z-689" value="" style="strokeColor=#DEEDFF" vertex="1" parent="1">
          <mxGeometry x="3470" y="480" width="20" height="640" as="geometry" />
        </mxCell>
        <mxCell id="N6iVnPfqX5solzvo0P7z-690" value="" style="strokeColor=#DEEDFF" vertex="1" parent="1">
          <mxGeometry x="3490" y="480" width="20" height="640" as="geometry" />
        </mxCell>
        <mxCell id="N6iVnPfqX5solzvo0P7z-691" value="" style="strokeColor=#DEEDFF" vertex="1" parent="1">
          <mxGeometry x="3510" y="480" width="20" height="640" as="geometry" />
        </mxCell>
        <mxCell id="N6iVnPfqX5solzvo0P7z-692" value="" style="strokeColor=#DEEDFF" vertex="1" parent="1">
          <mxGeometry x="3530" y="480" width="20" height="640" as="geometry" />
        </mxCell>
        <mxCell id="N6iVnPfqX5solzvo0P7z-693" value="" style="strokeColor=#DEEDFF;fillColor=#D4E1FF" vertex="1" parent="1">
          <mxGeometry x="3550" y="480" width="20" height="640" as="geometry" />
        </mxCell>
        <mxCell id="N6iVnPfqX5solzvo0P7z-694" value="" style="strokeColor=#DEEDFF;fillColor=#D4E1FF" vertex="1" parent="1">
          <mxGeometry x="3570" y="480" width="20" height="640" as="geometry" />
        </mxCell>
        <mxCell id="N6iVnPfqX5solzvo0P7z-695" value="" style="strokeColor=#DEEDFF" vertex="1" parent="1">
          <mxGeometry x="3590" y="480" width="20" height="640" as="geometry" />
        </mxCell>
        <mxCell id="N6iVnPfqX5solzvo0P7z-696" value="" style="strokeColor=#DEEDFF" vertex="1" parent="1">
          <mxGeometry x="3610" y="480" width="20" height="640" as="geometry" />
        </mxCell>
        <mxCell id="N6iVnPfqX5solzvo0P7z-697" value="" style="strokeColor=#DEEDFF" vertex="1" parent="1">
          <mxGeometry x="3630" y="480" width="20" height="640" as="geometry" />
        </mxCell>
        <mxCell id="N6iVnPfqX5solzvo0P7z-698" value="" style="strokeColor=#DEEDFF" vertex="1" parent="1">
          <mxGeometry x="3650" y="480" width="20" height="640" as="geometry" />
        </mxCell>
        <mxCell id="N6iVnPfqX5solzvo0P7z-699" value="" style="strokeColor=#DEEDFF" vertex="1" parent="1">
          <mxGeometry x="3670" y="480" width="20" height="640" as="geometry" />
        </mxCell>
        <mxCell id="N6iVnPfqX5solzvo0P7z-700" value="" style="strokeColor=#DEEDFF;fillColor=#D4E1FF" vertex="1" parent="1">
          <mxGeometry x="3690" y="480" width="20" height="640" as="geometry" />
        </mxCell>
        <mxCell id="N6iVnPfqX5solzvo0P7z-701" value="" style="strokeColor=#DEEDFF;fillColor=#D4E1FF" vertex="1" parent="1">
          <mxGeometry x="3710" y="480" width="20" height="640" as="geometry" />
        </mxCell>
        <mxCell id="N6iVnPfqX5solzvo0P7z-702" value="" style="strokeColor=#DEEDFF" vertex="1" parent="1">
          <mxGeometry x="3730" y="480" width="20" height="640" as="geometry" />
        </mxCell>
        <mxCell id="N6iVnPfqX5solzvo0P7z-703" value="" style="strokeColor=#DEEDFF" vertex="1" parent="1">
          <mxGeometry x="3750" y="480" width="20" height="640" as="geometry" />
        </mxCell>
        <mxCell id="N6iVnPfqX5solzvo0P7z-704" value="" style="strokeColor=#DEEDFF" vertex="1" parent="1">
          <mxGeometry x="3770" y="480" width="20" height="640" as="geometry" />
        </mxCell>
        <mxCell id="N6iVnPfqX5solzvo0P7z-705" value="" style="strokeColor=#DEEDFF" vertex="1" parent="1">
          <mxGeometry x="3790" y="480" width="20" height="640" as="geometry" />
        </mxCell>
        <mxCell id="N6iVnPfqX5solzvo0P7z-706" value="" style="strokeColor=#DEEDFF" vertex="1" parent="1">
          <mxGeometry x="3810" y="480" width="20" height="640" as="geometry" />
        </mxCell>
        <mxCell id="N6iVnPfqX5solzvo0P7z-707" value="" style="strokeColor=#DEEDFF;fillColor=#D4E1FF" vertex="1" parent="1">
          <mxGeometry x="3830" y="480" width="20" height="640" as="geometry" />
        </mxCell>
        <mxCell id="N6iVnPfqX5solzvo0P7z-708" value="" style="strokeColor=#DEEDFF;fillColor=#D4E1FF" vertex="1" parent="1">
          <mxGeometry x="3850" y="480" width="20" height="640" as="geometry" />
        </mxCell>
        <mxCell id="N6iVnPfqX5solzvo0P7z-709" value="" style="strokeColor=#DEEDFF" vertex="1" parent="1">
          <mxGeometry x="3870" y="480" width="20" height="640" as="geometry" />
        </mxCell>
        <mxCell id="N6iVnPfqX5solzvo0P7z-710" value="" style="strokeColor=#DEEDFF" vertex="1" parent="1">
          <mxGeometry x="3890" y="480" width="20" height="640" as="geometry" />
        </mxCell>
        <mxCell id="N6iVnPfqX5solzvo0P7z-711" value="" style="strokeColor=#DEEDFF" vertex="1" parent="1">
          <mxGeometry x="3910" y="480" width="20" height="640" as="geometry" />
        </mxCell>
        <mxCell id="N6iVnPfqX5solzvo0P7z-712" value="" style="strokeColor=#DEEDFF" vertex="1" parent="1">
          <mxGeometry x="3930" y="480" width="20" height="640" as="geometry" />
        </mxCell>
        <mxCell id="N6iVnPfqX5solzvo0P7z-713" value="" style="strokeColor=#DEEDFF" vertex="1" parent="1">
          <mxGeometry x="3950" y="480" width="20" height="640" as="geometry" />
        </mxCell>
        <mxCell id="N6iVnPfqX5solzvo0P7z-714" value="" style="strokeColor=#DEEDFF;fillColor=#D4E1FF" vertex="1" parent="1">
          <mxGeometry x="3970" y="480" width="20" height="640" as="geometry" />
        </mxCell>
        <mxCell id="N6iVnPfqX5solzvo0P7z-715" value="" style="strokeColor=#DEEDFF;fillColor=#D4E1FF" vertex="1" parent="1">
          <mxGeometry x="3990" y="480" width="20" height="640" as="geometry" />
        </mxCell>
        <mxCell id="N6iVnPfqX5solzvo0P7z-716" value="" style="strokeColor=#DEEDFF" vertex="1" parent="1">
          <mxGeometry x="4010" y="480" width="20" height="640" as="geometry" />
        </mxCell>
        <mxCell id="N6iVnPfqX5solzvo0P7z-717" value="" style="strokeColor=#DEEDFF" vertex="1" parent="1">
          <mxGeometry x="4030" y="480" width="20" height="640" as="geometry" />
        </mxCell>
        <mxCell id="N6iVnPfqX5solzvo0P7z-718" value="" style="strokeColor=#DEEDFF" vertex="1" parent="1">
          <mxGeometry x="4050" y="480" width="20" height="640" as="geometry" />
        </mxCell>
        <mxCell id="N6iVnPfqX5solzvo0P7z-719" value="" style="strokeColor=#DEEDFF" vertex="1" parent="1">
          <mxGeometry x="4070" y="480" width="20" height="640" as="geometry" />
        </mxCell>
        <mxCell id="N6iVnPfqX5solzvo0P7z-720" value="" style="strokeColor=#DEEDFF" vertex="1" parent="1">
          <mxGeometry x="4090" y="480" width="20" height="640" as="geometry" />
        </mxCell>
        <mxCell id="N6iVnPfqX5solzvo0P7z-721" value="" style="strokeColor=#DEEDFF;fillColor=#D4E1FF" vertex="1" parent="1">
          <mxGeometry x="4110" y="480" width="20" height="640" as="geometry" />
        </mxCell>
        <mxCell id="N6iVnPfqX5solzvo0P7z-722" value="" style="strokeColor=#DEEDFF;fillColor=#D4E1FF" vertex="1" parent="1">
          <mxGeometry x="4130" y="480" width="20" height="640" as="geometry" />
        </mxCell>
        <mxCell id="N6iVnPfqX5solzvo0P7z-723" value="TUẦN 8 (17/3 - 23/3)" style="fillColor=#23445D;strokeColor=#FFFFFF;strokeWidth=2;fontColor=#FFFFFF;fontStyle=1" vertex="1" parent="1">
          <mxGeometry x="2703.500000000002" y="440.0000000000001" width="140" height="20" as="geometry" />
        </mxCell>
        <mxCell id="N6iVnPfqX5solzvo0P7z-724" value="M" style="fillColor=#23445D;strokeColor=#FFFFFF;strokeWidth=2;fontColor=#FFFFFF;fontStyle=1" vertex="1" parent="1">
          <mxGeometry x="2703.500000000002" y="460.0000000000001" width="20" height="20" as="geometry" />
        </mxCell>
        <mxCell id="N6iVnPfqX5solzvo0P7z-725" value="T" style="fillColor=#23445D;strokeColor=#FFFFFF;strokeWidth=2;fontColor=#FFFFFF;fontStyle=1" vertex="1" parent="1">
          <mxGeometry x="2723.500000000002" y="460.0000000000001" width="20" height="20" as="geometry" />
        </mxCell>
        <mxCell id="N6iVnPfqX5solzvo0P7z-726" value="W" style="fillColor=#23445D;strokeColor=#FFFFFF;strokeWidth=2;fontColor=#FFFFFF;fontStyle=1" vertex="1" parent="1">
          <mxGeometry x="2743.500000000002" y="460.0000000000001" width="20" height="20" as="geometry" />
        </mxCell>
        <mxCell id="N6iVnPfqX5solzvo0P7z-727" value="T" style="fillColor=#23445D;strokeColor=#FFFFFF;strokeWidth=2;fontColor=#FFFFFF;fontStyle=1" vertex="1" parent="1">
          <mxGeometry x="2763.500000000002" y="460.0000000000001" width="20" height="20" as="geometry" />
        </mxCell>
        <mxCell id="N6iVnPfqX5solzvo0P7z-728" value="F" style="fillColor=#23445D;strokeColor=#FFFFFF;strokeWidth=2;fontColor=#FFFFFF;fontStyle=1" vertex="1" parent="1">
          <mxGeometry x="2783.500000000002" y="460.0000000000001" width="20" height="20" as="geometry" />
        </mxCell>
        <mxCell id="N6iVnPfqX5solzvo0P7z-729" value="S" style="fillColor=#23445D;strokeColor=#FFFFFF;strokeWidth=2;fontColor=#FFFFFF;fontStyle=1" vertex="1" parent="1">
          <mxGeometry x="2803.500000000002" y="460.0000000000001" width="20" height="20" as="geometry" />
        </mxCell>
        <mxCell id="N6iVnPfqX5solzvo0P7z-730" value="S" style="fillColor=#23445D;strokeColor=#FFFFFF;strokeWidth=2;fontColor=#FFFFFF;fontStyle=1" vertex="1" parent="1">
          <mxGeometry x="2823.500000000002" y="460.0000000000001" width="20" height="20" as="geometry" />
        </mxCell>
        <mxCell id="N6iVnPfqX5solzvo0P7z-731" value="TUẦN 9 (24/3-30/3)" style="fillColor=#23445D;strokeColor=#FFFFFF;strokeWidth=2;fontColor=#FFFFFF;fontStyle=1" vertex="1" parent="1">
          <mxGeometry x="3310.000000000002" y="440.0000000000001" width="140" height="20" as="geometry" />
        </mxCell>
        <mxCell id="N6iVnPfqX5solzvo0P7z-732" value="M" style="fillColor=#23445D;strokeColor=#FFFFFF;strokeWidth=2;fontColor=#FFFFFF;fontStyle=1" vertex="1" parent="1">
          <mxGeometry x="3310.000000000002" y="460.0000000000001" width="20" height="20" as="geometry" />
        </mxCell>
        <mxCell id="N6iVnPfqX5solzvo0P7z-733" value="T" style="fillColor=#23445D;strokeColor=#FFFFFF;strokeWidth=2;fontColor=#FFFFFF;fontStyle=1" vertex="1" parent="1">
          <mxGeometry x="3330.000000000002" y="460.0000000000001" width="20" height="20" as="geometry" />
        </mxCell>
        <mxCell id="N6iVnPfqX5solzvo0P7z-734" value="W" style="fillColor=#23445D;strokeColor=#FFFFFF;strokeWidth=2;fontColor=#FFFFFF;fontStyle=1" vertex="1" parent="1">
          <mxGeometry x="3350.000000000002" y="460.0000000000001" width="20" height="20" as="geometry" />
        </mxCell>
        <mxCell id="N6iVnPfqX5solzvo0P7z-735" value="T" style="fillColor=#23445D;strokeColor=#FFFFFF;strokeWidth=2;fontColor=#FFFFFF;fontStyle=1" vertex="1" parent="1">
          <mxGeometry x="3370.000000000002" y="460.0000000000001" width="20" height="20" as="geometry" />
        </mxCell>
        <mxCell id="N6iVnPfqX5solzvo0P7z-736" value="F" style="fillColor=#23445D;strokeColor=#FFFFFF;strokeWidth=2;fontColor=#FFFFFF;fontStyle=1" vertex="1" parent="1">
          <mxGeometry x="3390.000000000002" y="460.0000000000001" width="20" height="20" as="geometry" />
        </mxCell>
        <mxCell id="N6iVnPfqX5solzvo0P7z-737" value="S" style="fillColor=#23445D;strokeColor=#FFFFFF;strokeWidth=2;fontColor=#FFFFFF;fontStyle=1" vertex="1" parent="1">
          <mxGeometry x="3410.000000000002" y="460.0000000000001" width="20" height="20" as="geometry" />
        </mxCell>
        <mxCell id="N6iVnPfqX5solzvo0P7z-738" value="S" style="fillColor=#23445D;strokeColor=#FFFFFF;strokeWidth=2;fontColor=#FFFFFF;fontStyle=1" vertex="1" parent="1">
          <mxGeometry x="3430.000000000002" y="460.0000000000001" width="20" height="20" as="geometry" />
        </mxCell>
        <mxCell id="N6iVnPfqX5solzvo0P7z-739" value="TUẦN 10 (31/3 - 6/4)" style="fillColor=#23445D;strokeColor=#FFFFFF;strokeWidth=2;fontColor=#FFFFFF;fontStyle=1" vertex="1" parent="1">
          <mxGeometry x="3450.000000000002" y="440.00000000000006" width="140" height="20" as="geometry" />
        </mxCell>
        <mxCell id="N6iVnPfqX5solzvo0P7z-740" value="M" style="fillColor=#23445D;strokeColor=#FFFFFF;strokeWidth=2;fontColor=#FFFFFF;fontStyle=1" vertex="1" parent="1">
          <mxGeometry x="3450.000000000002" y="460.00000000000006" width="20" height="20" as="geometry" />
        </mxCell>
        <mxCell id="N6iVnPfqX5solzvo0P7z-741" value="T" style="fillColor=#23445D;strokeColor=#FFFFFF;strokeWidth=2;fontColor=#FFFFFF;fontStyle=1" vertex="1" parent="1">
          <mxGeometry x="3470.000000000002" y="460.00000000000006" width="20" height="20" as="geometry" />
        </mxCell>
        <mxCell id="N6iVnPfqX5solzvo0P7z-742" value="W" style="fillColor=#23445D;strokeColor=#FFFFFF;strokeWidth=2;fontColor=#FFFFFF;fontStyle=1" vertex="1" parent="1">
          <mxGeometry x="3490.000000000002" y="460.00000000000006" width="20" height="20" as="geometry" />
        </mxCell>
        <mxCell id="N6iVnPfqX5solzvo0P7z-743" value="T" style="fillColor=#23445D;strokeColor=#FFFFFF;strokeWidth=2;fontColor=#FFFFFF;fontStyle=1" vertex="1" parent="1">
          <mxGeometry x="3510.000000000002" y="460.00000000000006" width="20" height="20" as="geometry" />
        </mxCell>
        <mxCell id="N6iVnPfqX5solzvo0P7z-744" value="F" style="fillColor=#23445D;strokeColor=#FFFFFF;strokeWidth=2;fontColor=#FFFFFF;fontStyle=1" vertex="1" parent="1">
          <mxGeometry x="3530.000000000002" y="460.00000000000006" width="20" height="20" as="geometry" />
        </mxCell>
        <mxCell id="N6iVnPfqX5solzvo0P7z-745" value="S" style="fillColor=#23445D;strokeColor=#FFFFFF;strokeWidth=2;fontColor=#FFFFFF;fontStyle=1" vertex="1" parent="1">
          <mxGeometry x="3550.000000000002" y="460.00000000000006" width="20" height="20" as="geometry" />
        </mxCell>
        <mxCell id="N6iVnPfqX5solzvo0P7z-746" value="S" style="fillColor=#23445D;strokeColor=#FFFFFF;strokeWidth=2;fontColor=#FFFFFF;fontStyle=1" vertex="1" parent="1">
          <mxGeometry x="3570.000000000002" y="460.00000000000006" width="20" height="20" as="geometry" />
        </mxCell>
        <mxCell id="N6iVnPfqX5solzvo0P7z-747" value="TUẦN 11 (7/4 - 13/4)" style="fillColor=#23445D;strokeColor=#FFFFFF;strokeWidth=2;fontColor=#FFFFFF;fontStyle=1" vertex="1" parent="1">
          <mxGeometry x="3590.000000000002" y="440.00000000000006" width="140" height="20" as="geometry" />
        </mxCell>
        <mxCell id="N6iVnPfqX5solzvo0P7z-748" value="M" style="fillColor=#23445D;strokeColor=#FFFFFF;strokeWidth=2;fontColor=#FFFFFF;fontStyle=1" vertex="1" parent="1">
          <mxGeometry x="3590.000000000002" y="460.00000000000006" width="20" height="20" as="geometry" />
        </mxCell>
        <mxCell id="N6iVnPfqX5solzvo0P7z-749" value="T" style="fillColor=#23445D;strokeColor=#FFFFFF;strokeWidth=2;fontColor=#FFFFFF;fontStyle=1" vertex="1" parent="1">
          <mxGeometry x="3610.000000000002" y="460.00000000000006" width="20" height="20" as="geometry" />
        </mxCell>
        <mxCell id="N6iVnPfqX5solzvo0P7z-750" value="W" style="fillColor=#23445D;strokeColor=#FFFFFF;strokeWidth=2;fontColor=#FFFFFF;fontStyle=1" vertex="1" parent="1">
          <mxGeometry x="3630.000000000002" y="460.00000000000006" width="20" height="20" as="geometry" />
        </mxCell>
        <mxCell id="N6iVnPfqX5solzvo0P7z-751" value="T" style="fillColor=#23445D;strokeColor=#FFFFFF;strokeWidth=2;fontColor=#FFFFFF;fontStyle=1" vertex="1" parent="1">
          <mxGeometry x="3650.000000000002" y="460.00000000000006" width="20" height="20" as="geometry" />
        </mxCell>
        <mxCell id="N6iVnPfqX5solzvo0P7z-752" value="F" style="fillColor=#23445D;strokeColor=#FFFFFF;strokeWidth=2;fontColor=#FFFFFF;fontStyle=1" vertex="1" parent="1">
          <mxGeometry x="3670.000000000002" y="460" width="20" height="20" as="geometry" />
        </mxCell>
        <mxCell id="N6iVnPfqX5solzvo0P7z-753" value="S" style="fillColor=#23445D;strokeColor=#FFFFFF;strokeWidth=2;fontColor=#FFFFFF;fontStyle=1" vertex="1" parent="1">
          <mxGeometry x="3690.000000000002" y="460" width="20" height="20" as="geometry" />
        </mxCell>
        <mxCell id="N6iVnPfqX5solzvo0P7z-754" value="S" style="fillColor=#23445D;strokeColor=#FFFFFF;strokeWidth=2;fontColor=#FFFFFF;fontStyle=1" vertex="1" parent="1">
          <mxGeometry x="3710.000000000002" y="460" width="20" height="20" as="geometry" />
        </mxCell>
        <mxCell id="N6iVnPfqX5solzvo0P7z-755" value="TUẦN 12 (14/4 - 20/4)" style="fillColor=#23445D;strokeColor=#FFFFFF;strokeWidth=2;fontColor=#FFFFFF;fontStyle=1" vertex="1" parent="1">
          <mxGeometry x="3730.000000000002" y="440.00000000000006" width="140" height="20" as="geometry" />
        </mxCell>
        <mxCell id="N6iVnPfqX5solzvo0P7z-756" value="M" style="fillColor=#23445D;strokeColor=#FFFFFF;strokeWidth=2;fontColor=#FFFFFF;fontStyle=1" vertex="1" parent="1">
          <mxGeometry x="3730.000000000002" y="460.00000000000006" width="20" height="20" as="geometry" />
        </mxCell>
        <mxCell id="N6iVnPfqX5solzvo0P7z-757" value="T" style="fillColor=#23445D;strokeColor=#FFFFFF;strokeWidth=2;fontColor=#FFFFFF;fontStyle=1" vertex="1" parent="1">
          <mxGeometry x="3750.000000000002" y="460.00000000000006" width="20" height="20" as="geometry" />
        </mxCell>
        <mxCell id="N6iVnPfqX5solzvo0P7z-758" value="W" style="fillColor=#23445D;strokeColor=#FFFFFF;strokeWidth=2;fontColor=#FFFFFF;fontStyle=1" vertex="1" parent="1">
          <mxGeometry x="3770.000000000002" y="460.00000000000006" width="20" height="20" as="geometry" />
        </mxCell>
        <mxCell id="N6iVnPfqX5solzvo0P7z-759" value="T" style="fillColor=#23445D;strokeColor=#FFFFFF;strokeWidth=2;fontColor=#FFFFFF;fontStyle=1" vertex="1" parent="1">
          <mxGeometry x="3790.000000000002" y="460.00000000000006" width="20" height="20" as="geometry" />
        </mxCell>
        <mxCell id="N6iVnPfqX5solzvo0P7z-760" value="F" style="fillColor=#23445D;strokeColor=#FFFFFF;strokeWidth=2;fontColor=#FFFFFF;fontStyle=1" vertex="1" parent="1">
          <mxGeometry x="3810.000000000002" y="460" width="20" height="20" as="geometry" />
        </mxCell>
        <mxCell id="N6iVnPfqX5solzvo0P7z-761" value="S" style="fillColor=#23445D;strokeColor=#FFFFFF;strokeWidth=2;fontColor=#FFFFFF;fontStyle=1" vertex="1" parent="1">
          <mxGeometry x="3830.000000000002" y="460" width="20" height="20" as="geometry" />
        </mxCell>
        <mxCell id="N6iVnPfqX5solzvo0P7z-762" value="S" style="fillColor=#23445D;strokeColor=#FFFFFF;strokeWidth=2;fontColor=#FFFFFF;fontStyle=1" vertex="1" parent="1">
          <mxGeometry x="3850.000000000002" y="460" width="20" height="20" as="geometry" />
        </mxCell>
        <mxCell id="N6iVnPfqX5solzvo0P7z-763" value="TUẦN 13 (21/4 - 27/4)" style="fillColor=#23445D;strokeColor=#FFFFFF;strokeWidth=2;fontColor=#FFFFFF;fontStyle=1" vertex="1" parent="1">
          <mxGeometry x="3870.000000000002" y="440" width="140" height="20" as="geometry" />
        </mxCell>
        <mxCell id="N6iVnPfqX5solzvo0P7z-764" value="M" style="fillColor=#23445D;strokeColor=#FFFFFF;strokeWidth=2;fontColor=#FFFFFF;fontStyle=1" vertex="1" parent="1">
          <mxGeometry x="3870.000000000002" y="460" width="20" height="20" as="geometry" />
        </mxCell>
        <mxCell id="N6iVnPfqX5solzvo0P7z-765" value="T" style="fillColor=#23445D;strokeColor=#FFFFFF;strokeWidth=2;fontColor=#FFFFFF;fontStyle=1" vertex="1" parent="1">
          <mxGeometry x="3890.000000000002" y="460" width="20" height="20" as="geometry" />
        </mxCell>
        <mxCell id="N6iVnPfqX5solzvo0P7z-766" value="W" style="fillColor=#23445D;strokeColor=#FFFFFF;strokeWidth=2;fontColor=#FFFFFF;fontStyle=1" vertex="1" parent="1">
          <mxGeometry x="3910.000000000002" y="460" width="20" height="20" as="geometry" />
        </mxCell>
        <mxCell id="N6iVnPfqX5solzvo0P7z-767" value="T" style="fillColor=#23445D;strokeColor=#FFFFFF;strokeWidth=2;fontColor=#FFFFFF;fontStyle=1" vertex="1" parent="1">
          <mxGeometry x="3930.000000000002" y="460" width="20" height="20" as="geometry" />
        </mxCell>
        <mxCell id="N6iVnPfqX5solzvo0P7z-768" value="F" style="fillColor=#23445D;strokeColor=#FFFFFF;strokeWidth=2;fontColor=#FFFFFF;fontStyle=1" vertex="1" parent="1">
          <mxGeometry x="3950.000000000002" y="460" width="20" height="20" as="geometry" />
        </mxCell>
        <mxCell id="N6iVnPfqX5solzvo0P7z-769" value="S" style="fillColor=#23445D;strokeColor=#FFFFFF;strokeWidth=2;fontColor=#FFFFFF;fontStyle=1" vertex="1" parent="1">
          <mxGeometry x="3970.000000000002" y="460" width="20" height="20" as="geometry" />
        </mxCell>
        <mxCell id="N6iVnPfqX5solzvo0P7z-770" value="S" style="fillColor=#23445D;strokeColor=#FFFFFF;strokeWidth=2;fontColor=#FFFFFF;fontStyle=1" vertex="1" parent="1">
          <mxGeometry x="3990.000000000002" y="460" width="20" height="20" as="geometry" />
        </mxCell>
        <mxCell id="N6iVnPfqX5solzvo0P7z-771" value="TUẦN 14 (28/4 - 4/5)" style="fillColor=#23445D;strokeColor=#FFFFFF;strokeWidth=2;fontColor=#FFFFFF;fontStyle=1" vertex="1" parent="1">
          <mxGeometry x="4010.000000000002" y="440.0000000000001" width="140" height="20" as="geometry" />
        </mxCell>
        <mxCell id="N6iVnPfqX5solzvo0P7z-772" value="M" style="fillColor=#23445D;strokeColor=#FFFFFF;strokeWidth=2;fontColor=#FFFFFF;fontStyle=1" vertex="1" parent="1">
          <mxGeometry x="4010.000000000002" y="460.0000000000001" width="20" height="20" as="geometry" />
        </mxCell>
        <mxCell id="N6iVnPfqX5solzvo0P7z-773" value="T" style="fillColor=#23445D;strokeColor=#FFFFFF;strokeWidth=2;fontColor=#FFFFFF;fontStyle=1" vertex="1" parent="1">
          <mxGeometry x="4030.000000000002" y="460.0000000000001" width="20" height="20" as="geometry" />
        </mxCell>
        <mxCell id="N6iVnPfqX5solzvo0P7z-774" value="W" style="fillColor=#23445D;strokeColor=#FFFFFF;strokeWidth=2;fontColor=#FFFFFF;fontStyle=1" vertex="1" parent="1">
          <mxGeometry x="4050.000000000002" y="460.0000000000001" width="20" height="20" as="geometry" />
        </mxCell>
        <mxCell id="N6iVnPfqX5solzvo0P7z-775" value="T" style="fillColor=#23445D;strokeColor=#FFFFFF;strokeWidth=2;fontColor=#FFFFFF;fontStyle=1" vertex="1" parent="1">
          <mxGeometry x="4070.000000000002" y="460.0000000000001" width="20" height="20" as="geometry" />
        </mxCell>
        <mxCell id="N6iVnPfqX5solzvo0P7z-776" value="F" style="fillColor=#23445D;strokeColor=#FFFFFF;strokeWidth=2;fontColor=#FFFFFF;fontStyle=1" vertex="1" parent="1">
          <mxGeometry x="4090.000000000002" y="460.0000000000001" width="20" height="20" as="geometry" />
        </mxCell>
        <mxCell id="N6iVnPfqX5solzvo0P7z-777" value="S" style="fillColor=#23445D;strokeColor=#FFFFFF;strokeWidth=2;fontColor=#FFFFFF;fontStyle=1" vertex="1" parent="1">
          <mxGeometry x="4110.000000000002" y="460.0000000000001" width="20" height="20" as="geometry" />
        </mxCell>
        <mxCell id="N6iVnPfqX5solzvo0P7z-778" value="S" style="fillColor=#23445D;strokeColor=#FFFFFF;strokeWidth=2;fontColor=#FFFFFF;fontStyle=1" vertex="1" parent="1">
          <mxGeometry x="4130.000000000002" y="460.0000000000001" width="20" height="20" as="geometry" />
        </mxCell>
        <mxCell id="N6iVnPfqX5solzvo0P7z-780" value="" style="shape=mxgraph.flowchart.process;fillColor=#AE4132;strokeColor=none;strokeWidth=2;opacity=50" vertex="1" parent="1">
          <mxGeometry x="4090.000000000003" y="620.0000000000014" width="19.999999999998863" height="19.99999999999983" as="geometry" />
        </mxCell>
        <mxCell id="N6iVnPfqX5solzvo0P7z-783" value="" style="shape=mxgraph.flowchart.process;fillColor=#AE4132;strokeColor=none;strokeWidth=2;opacity=50" vertex="1" parent="1">
          <mxGeometry x="3510.000000000002" y="720.0000000000005" width="279.99999999999807" height="19.99999999999983" as="geometry" />
        </mxCell>
        <mxCell id="N6iVnPfqX5solzvo0P7z-784" value="" style="shape=mxgraph.flowchart.process;fillColor=#AE4132;strokeColor=none;strokeWidth=2;opacity=50" vertex="1" parent="1">
          <mxGeometry x="3530.0000000000036" y="840.0000000000016" width="379.9999999999965" height="19.99999999999983" as="geometry" />
        </mxCell>
        <mxCell id="N6iVnPfqX5solzvo0P7z-788" value="" style="shape=mxgraph.arrows.bent_right_arrow;fillColor=#AE4132;strokeColor=none;strokeWidth=2;direction=south" vertex="1" parent="1">
          <mxGeometry x="3790" y="730.0000000000368" width="10.000000000000341" height="9.99999999999983" as="geometry" />
        </mxCell>
        <mxCell id="N6iVnPfqX5solzvo0P7z-789" value="" style="shape=mxgraph.arrows.bent_right_arrow;fillColor=#AE4132;strokeColor=none;strokeWidth=2;direction=south" vertex="1" parent="1">
          <mxGeometry x="3910.0000000000036" y="850.000000000003" width="10.000000000000341" height="9.99999999999983" as="geometry" />
        </mxCell>
        <mxCell id="N6iVnPfqX5solzvo0P7z-792" value="GIAI ĐOẠN 4" style="fillColor=#23445D;strokeColor=#FFFFFF;strokeWidth=2;fontColor=#FFFFFF;fontStyle=1" vertex="1" parent="1">
          <mxGeometry x="3366.5" y="410" width="440" height="30" as="geometry" />
        </mxCell>
        <mxCell id="N6iVnPfqX5solzvo0P7z-809" value="" style="shape=mxgraph.flowchart.process;fillColor=#AE4132;strokeColor=none;strokeWidth=2;opacity=50" vertex="1" parent="1">
          <mxGeometry x="3510.000000000002" y="880.0000000000009" width="19.999999999998863" height="19.99999999999983" as="geometry" />
        </mxCell>
        <mxCell id="N6iVnPfqX5solzvo0P7z-811" value="" style="shape=mxgraph.flowchart.process;fillColor=#AE4132;strokeColor=none;strokeWidth=2;opacity=50" vertex="1" parent="1">
          <mxGeometry x="3550.000000000002" y="880.0000000000009" width="19.999999999998863" height="19.99999999999983" as="geometry" />
        </mxCell>
        <mxCell id="N6iVnPfqX5solzvo0P7z-812" value="" style="shape=mxgraph.flowchart.process;fillColor=#AE4132;strokeColor=none;strokeWidth=2;opacity=50" vertex="1" parent="1">
          <mxGeometry x="3530.000000000002" y="880.0000000000009" width="19.999999999998863" height="19.99999999999983" as="geometry" />
        </mxCell>
        <mxCell id="N6iVnPfqX5solzvo0P7z-831" value="" style="shape=mxgraph.flowchart.process;fillColor=#AE4132;strokeColor=none;strokeWidth=2;opacity=50" vertex="1" parent="1">
          <mxGeometry x="2703.500000000002" y="820.0000000000009" width="19.999999999998863" height="19.99999999999983" as="geometry" />
        </mxCell>
        <mxCell id="N6iVnPfqX5solzvo0P7z-668" value="" style="shape=mxgraph.flowchart.process;fillColor=#AE4132;strokeColor=none;strokeWidth=2;opacity=50" vertex="1" parent="1">
          <mxGeometry x="2723.500000000002" y="820.0000000000009" width="19.999999999998863" height="19.99999999999983" as="geometry" />
        </mxCell>
        <mxCell id="N6iVnPfqX5solzvo0P7z-832" value="" style="shape=mxgraph.flowchart.process;fillColor=#AE4132;strokeColor=none;strokeWidth=2;opacity=50" vertex="1" parent="1">
          <mxGeometry x="3370.000000000002" y="860.0000000000009" width="19.999999999998863" height="19.99999999999983" as="geometry" />
        </mxCell>
        <mxCell id="N6iVnPfqX5solzvo0P7z-833" value="" style="shape=mxgraph.flowchart.process;fillColor=#AE4132;strokeColor=none;strokeWidth=2;opacity=50" vertex="1" parent="1">
          <mxGeometry x="3390.000000000002" y="860.0000000000009" width="19.999999999998863" height="19.99999999999983" as="geometry" />
        </mxCell>
        <mxCell id="N6iVnPfqX5solzvo0P7z-834" value="" style="shape=mxgraph.flowchart.process;fillColor=#AE4132;strokeColor=none;strokeWidth=2;opacity=50" vertex="1" parent="1">
          <mxGeometry x="3430.000000000002" y="860.0000000000009" width="19.999999999998863" height="19.99999999999983" as="geometry" />
        </mxCell>
        <mxCell id="N6iVnPfqX5solzvo0P7z-835" value="" style="shape=mxgraph.flowchart.process;fillColor=#AE4132;strokeColor=none;strokeWidth=2;opacity=50" vertex="1" parent="1">
          <mxGeometry x="3410.000000000002" y="860.0000000000009" width="19.999999999998863" height="19.99999999999983" as="geometry" />
        </mxCell>
        <mxCell id="N6iVnPfqX5solzvo0P7z-836" value="" style="shape=mxgraph.flowchart.process;fillColor=#AE4132;strokeColor=none;strokeWidth=2;opacity=50" vertex="1" parent="1">
          <mxGeometry x="3570.000000000002" y="900.0000000000009" width="19.999999999998863" height="19.99999999999983" as="geometry" />
        </mxCell>
        <mxCell id="N6iVnPfqX5solzvo0P7z-837" value="" style="shape=mxgraph.flowchart.process;fillColor=#AE4132;strokeColor=none;strokeWidth=2;opacity=50" vertex="1" parent="1">
          <mxGeometry x="3590.000000000002" y="900.0000000000009" width="19.999999999998863" height="19.99999999999983" as="geometry" />
        </mxCell>
        <mxCell id="N6iVnPfqX5solzvo0P7z-838" value="" style="shape=mxgraph.flowchart.process;fillColor=#AE4132;strokeColor=none;strokeWidth=2;opacity=50" vertex="1" parent="1">
          <mxGeometry x="3610.000000000002" y="900.0000000000009" width="19.999999999998863" height="19.99999999999983" as="geometry" />
        </mxCell>
        <mxCell id="N6iVnPfqX5solzvo0P7z-839" value="" style="shape=mxgraph.flowchart.process;fillColor=#AE4132;strokeColor=none;strokeWidth=2;opacity=50" vertex="1" parent="1">
          <mxGeometry x="3650.000000000002" y="920.0000000000009" width="19.999999999998863" height="19.99999999999983" as="geometry" />
        </mxCell>
        <mxCell id="N6iVnPfqX5solzvo0P7z-840" value="" style="shape=mxgraph.flowchart.process;fillColor=#AE4132;strokeColor=none;strokeWidth=2;opacity=50" vertex="1" parent="1">
          <mxGeometry x="3690.000000000002" y="920.0000000000009" width="19.999999999998863" height="19.99999999999983" as="geometry" />
        </mxCell>
        <mxCell id="N6iVnPfqX5solzvo0P7z-841" value="" style="shape=mxgraph.flowchart.process;fillColor=#AE4132;strokeColor=none;strokeWidth=2;opacity=50" vertex="1" parent="1">
          <mxGeometry x="3670.000000000002" y="920.0000000000009" width="19.999999999998863" height="19.99999999999983" as="geometry" />
        </mxCell>
        <mxCell id="N6iVnPfqX5solzvo0P7z-842" value="" style="shape=mxgraph.flowchart.process;fillColor=#AE4132;strokeColor=none;strokeWidth=2;opacity=50" vertex="1" parent="1">
          <mxGeometry x="3750.000000000002" y="940.0000000000009" width="19.999999999998863" height="19.99999999999983" as="geometry" />
        </mxCell>
        <mxCell id="N6iVnPfqX5solzvo0P7z-843" value="" style="shape=mxgraph.flowchart.process;fillColor=#AE4132;strokeColor=none;strokeWidth=2;opacity=50" vertex="1" parent="1">
          <mxGeometry x="3730.000000000002" y="940.0000000000009" width="19.999999999998863" height="19.99999999999983" as="geometry" />
        </mxCell>
        <mxCell id="N6iVnPfqX5solzvo0P7z-844" value="" style="shape=mxgraph.flowchart.process;fillColor=#AE4132;strokeColor=none;strokeWidth=2;opacity=50" vertex="1" parent="1">
          <mxGeometry x="3790.000000000002" y="960.0000000000009" width="19.999999999998863" height="19.99999999999983" as="geometry" />
        </mxCell>
        <mxCell id="N6iVnPfqX5solzvo0P7z-845" value="" style="shape=mxgraph.flowchart.process;fillColor=#AE4132;strokeColor=none;strokeWidth=2;opacity=50" vertex="1" parent="1">
          <mxGeometry x="3770.000000000002" y="960.0000000000009" width="19.999999999998863" height="19.99999999999983" as="geometry" />
        </mxCell>
        <mxCell id="N6iVnPfqX5solzvo0P7z-634" value="" style="shape=mxgraph.flowchart.process;fillColor=#d5e8d4;strokeColor=#82b366;strokeWidth=2;opacity=100" vertex="1" parent="1">
          <mxGeometry x="1720" y="620" width="1120" height="20" as="geometry" />
        </mxCell>
        <mxCell id="N6iVnPfqX5solzvo0P7z-635" value="" style="shape=mxgraph.flowchart.process;fillColor=#d5e8d4;strokeColor=#82b366;strokeWidth=2;opacity=100" vertex="1" parent="1">
          <mxGeometry x="1721.75" y="720" width="1118.25" height="20" as="geometry" />
        </mxCell>
        <mxCell id="N6iVnPfqX5solzvo0P7z-636" value="" style="shape=mxgraph.flowchart.process;fillColor=#d5e8d4;strokeColor=#82b366;strokeWidth=2;opacity=100" vertex="1" parent="1">
          <mxGeometry x="1720" y="840" width="1120" height="20" as="geometry" />
        </mxCell>
        <mxCell id="N6iVnPfqX5solzvo0P7z-637" value="" style="shape=mxgraph.flowchart.process;fillColor=#d5e8d4;strokeColor=#82b366;strokeWidth=2;opacity=100" vertex="1" parent="1">
          <mxGeometry x="1720" y="980" width="1120" height="20" as="geometry" />
        </mxCell>
        <mxCell id="254" value="" style="shape=mxgraph.flowchart.process;fillColor=#d5e8d4;strokeColor=#82b366;strokeWidth=2;opacity=100" parent="1" vertex="1">
          <mxGeometry x="1721.75" y="480" width="1118.25" height="20" as="geometry" />
        </mxCell>
        <mxCell id="N6iVnPfqX5solzvo0P7z-849" value="" style="shape=mxgraph.flowchart.process;fillColor=#AE4132;strokeColor=none;strokeWidth=2;opacity=50" vertex="1" parent="1">
          <mxGeometry x="3850.000000000002" y="1000.0000000000009" width="19.999999999998863" height="19.99999999999983" as="geometry" />
        </mxCell>
        <mxCell id="N6iVnPfqX5solzvo0P7z-850" value="" style="shape=mxgraph.flowchart.process;fillColor=#AE4132;strokeColor=none;strokeWidth=2;opacity=50" vertex="1" parent="1">
          <mxGeometry x="3870.000000000002" y="1000.0000000000009" width="19.999999999998863" height="19.99999999999983" as="geometry" />
        </mxCell>
        <mxCell id="N6iVnPfqX5solzvo0P7z-851" value="" style="shape=mxgraph.flowchart.process;fillColor=#AE4132;strokeColor=none;strokeWidth=2;opacity=50" vertex="1" parent="1">
          <mxGeometry x="3890.000000000002" y="1020.0000000000009" width="19.999999999998863" height="19.99999999999983" as="geometry" />
        </mxCell>
        <mxCell id="N6iVnPfqX5solzvo0P7z-852" value="" style="shape=mxgraph.flowchart.process;fillColor=#AE4132;strokeColor=none;strokeWidth=2;opacity=50" vertex="1" parent="1">
          <mxGeometry x="3910.000000000002" y="1020.0000000000009" width="19.999999999998863" height="19.99999999999983" as="geometry" />
        </mxCell>
        <mxCell id="N6iVnPfqX5solzvo0P7z-853" value="" style="shape=mxgraph.flowchart.process;fillColor=#AE4132;strokeColor=none;strokeWidth=2;opacity=50" vertex="1" parent="1">
          <mxGeometry x="3930.000000000002" y="1040.000000000001" width="19.999999999998863" height="19.99999999999983" as="geometry" />
        </mxCell>
        <mxCell id="N6iVnPfqX5solzvo0P7z-854" value="" style="shape=mxgraph.flowchart.process;fillColor=#AE4132;strokeColor=none;strokeWidth=2;opacity=50" vertex="1" parent="1">
          <mxGeometry x="3950.000000000002" y="1040.000000000001" width="19.999999999998863" height="19.99999999999983" as="geometry" />
        </mxCell>
        <mxCell id="N6iVnPfqX5solzvo0P7z-855" value="" style="shape=mxgraph.flowchart.process;fillColor=#AE4132;strokeColor=none;strokeWidth=2;opacity=50" vertex="1" parent="1">
          <mxGeometry x="3970.000000000002" y="1040.000000000001" width="19.999999999998863" height="19.99999999999983" as="geometry" />
        </mxCell>
        <mxCell id="N6iVnPfqX5solzvo0P7z-856" value="" style="shape=mxgraph.flowchart.process;fillColor=#AE4132;strokeColor=none;strokeWidth=2;opacity=50" vertex="1" parent="1">
          <mxGeometry x="3990.000000000002" y="1060.000000000001" width="19.999999999998863" height="19.99999999999983" as="geometry" />
        </mxCell>
        <mxCell id="N6iVnPfqX5solzvo0P7z-857" value="" style="shape=mxgraph.flowchart.process;fillColor=#AE4132;strokeColor=none;strokeWidth=2;opacity=50" vertex="1" parent="1">
          <mxGeometry x="4010.000000000002" y="1060.000000000001" width="19.999999999998863" height="19.99999999999983" as="geometry" />
        </mxCell>
        <mxCell id="N6iVnPfqX5solzvo0P7z-858" value="" style="shape=mxgraph.flowchart.process;fillColor=#AE4132;strokeColor=none;strokeWidth=2;opacity=50" vertex="1" parent="1">
          <mxGeometry x="4030.000000000002" y="1080.000000000001" width="19.999999999998863" height="19.99999999999983" as="geometry" />
        </mxCell>
        <mxCell id="N6iVnPfqX5solzvo0P7z-859" value="" style="shape=mxgraph.flowchart.process;fillColor=#AE4132;strokeColor=none;strokeWidth=2;opacity=50" vertex="1" parent="1">
          <mxGeometry x="4050.000000000002" y="1080.000000000001" width="19.999999999998863" height="19.99999999999983" as="geometry" />
        </mxCell>
        <mxCell id="N6iVnPfqX5solzvo0P7z-860" value="" style="shape=mxgraph.flowchart.process;fillColor=#AE4132;strokeColor=none;strokeWidth=2;opacity=50" vertex="1" parent="1">
          <mxGeometry x="4070.000000000002" y="1080.000000000001" width="19.999999999998863" height="19.99999999999983" as="geometry" />
        </mxCell>
        <mxCell id="N6iVnPfqX5solzvo0P7z-861" value="" style="shape=mxgraph.flowchart.process;fillColor=#AE4132;strokeColor=none;strokeWidth=2;opacity=50" vertex="1" parent="1">
          <mxGeometry x="4110.000000000002" y="1100.000000000001" width="19.999999999998863" height="19.99999999999983" as="geometry" />
        </mxCell>
        <mxCell id="N6iVnPfqX5solzvo0P7z-862" value="GIAI ĐOẠN 2" style="fillColor=#23445D;strokeColor=#FFFFFF;strokeWidth=2;fontColor=#FFFFFF;fontStyle=1" vertex="1" parent="1">
          <mxGeometry x="2100" y="410" width="220" height="30" as="geometry" />
        </mxCell>
        <mxCell id="N6iVnPfqX5solzvo0P7z-864" value="GIAI ĐOẠN 3" style="fillColor=#23445D;strokeColor=#FFFFFF;strokeWidth=2;fontColor=#FFFFFF;fontStyle=1" vertex="1" parent="1">
          <mxGeometry x="2380" y="410" width="360" height="30" as="geometry" />
        </mxCell>
        <mxCell id="N6iVnPfqX5solzvo0P7z-865" value="GIAI ĐOẠN 5" style="fillColor=#23445D;strokeColor=#FFFFFF;strokeWidth=2;fontColor=#FFFFFF;fontStyle=1" vertex="1" parent="1">
          <mxGeometry x="3850" y="410" width="276.5" height="30" as="geometry" />
        </mxCell>
        <mxCell id="N6iVnPfqX5solzvo0P7z-866" value="1" style="strokeColor=#82b366;fillColor=#d5e8d4;fontSize=13;" vertex="1" parent="1">
          <mxGeometry x="1600" y="480" width="120" height="20" as="geometry" />
        </mxCell>
        <mxCell id="N6iVnPfqX5solzvo0P7z-867" value="1.1" style="fontSize=13;" vertex="1" parent="1">
          <mxGeometry x="1600" y="500" width="120" height="20" as="geometry" />
        </mxCell>
        <mxCell id="N6iVnPfqX5solzvo0P7z-868" value="1.2" style="fontSize=13;" vertex="1" parent="1">
          <mxGeometry x="1600" y="520" width="120" height="20" as="geometry" />
        </mxCell>
        <mxCell id="N6iVnPfqX5solzvo0P7z-869" value="1.3" style="fontSize=13;" vertex="1" parent="1">
          <mxGeometry x="1600" y="540" width="120" height="20" as="geometry" />
        </mxCell>
        <mxCell id="N6iVnPfqX5solzvo0P7z-870" value="1.4" style="fontSize=13;" vertex="1" parent="1">
          <mxGeometry x="1600" y="560" width="120" height="20" as="geometry" />
        </mxCell>
        <mxCell id="N6iVnPfqX5solzvo0P7z-871" value="1.5" style="fontSize=13;" vertex="1" parent="1">
          <mxGeometry x="1600" y="580" width="120" height="20" as="geometry" />
        </mxCell>
        <mxCell id="N6iVnPfqX5solzvo0P7z-872" value="1.6" style="fontSize=13;" vertex="1" parent="1">
          <mxGeometry x="1600" y="600" width="120" height="20" as="geometry" />
        </mxCell>
        <mxCell id="N6iVnPfqX5solzvo0P7z-873" value="2" style="strokeColor=#82b366;fillColor=#d5e8d4;fontSize=13;" vertex="1" parent="1">
          <mxGeometry x="1600" y="620" width="120" height="20" as="geometry" />
        </mxCell>
        <mxCell id="N6iVnPfqX5solzvo0P7z-874" value="2.1" style="fontSize=13;" vertex="1" parent="1">
          <mxGeometry x="1600" y="640" width="120" height="20" as="geometry" />
        </mxCell>
        <mxCell id="N6iVnPfqX5solzvo0P7z-875" value="2.2" style="fontSize=13;" vertex="1" parent="1">
          <mxGeometry x="1600" y="660" width="120" height="20" as="geometry" />
        </mxCell>
        <mxCell id="N6iVnPfqX5solzvo0P7z-876" value="2.3" style="fontSize=13;" vertex="1" parent="1">
          <mxGeometry x="1600" y="680" width="120" height="20" as="geometry" />
        </mxCell>
        <mxCell id="N6iVnPfqX5solzvo0P7z-877" value="2.4" style="fontSize=13;" vertex="1" parent="1">
          <mxGeometry x="1600" y="700" width="120" height="20" as="geometry" />
        </mxCell>
        <mxCell id="N6iVnPfqX5solzvo0P7z-878" value="3" style="strokeColor=#82b366;fillColor=#d5e8d4;fontSize=13;" vertex="1" parent="1">
          <mxGeometry x="1600" y="720" width="120" height="20" as="geometry" />
        </mxCell>
        <mxCell id="N6iVnPfqX5solzvo0P7z-879" value="3.1" style="fontSize=13;" vertex="1" parent="1">
          <mxGeometry x="1600" y="740" width="120" height="20" as="geometry" />
        </mxCell>
        <mxCell id="N6iVnPfqX5solzvo0P7z-880" value="3.2" style="fontSize=13;" vertex="1" parent="1">
          <mxGeometry x="1600" y="760" width="120" height="20" as="geometry" />
        </mxCell>
        <mxCell id="N6iVnPfqX5solzvo0P7z-881" value="3.3" style="fontSize=13;" vertex="1" parent="1">
          <mxGeometry x="1600" y="780" width="120" height="20" as="geometry" />
        </mxCell>
        <mxCell id="N6iVnPfqX5solzvo0P7z-882" value="3.4" style="fontSize=13;" vertex="1" parent="1">
          <mxGeometry x="1600" y="800" width="120" height="20" as="geometry" />
        </mxCell>
        <mxCell id="N6iVnPfqX5solzvo0P7z-883" value="3.5" style="fontSize=13;" vertex="1" parent="1">
          <mxGeometry x="1600" y="820" width="120" height="20" as="geometry" />
        </mxCell>
        <mxCell id="N6iVnPfqX5solzvo0P7z-884" value="4" style="strokeColor=#82b366;fillColor=#d5e8d4;fontSize=13;" vertex="1" parent="1">
          <mxGeometry x="1600" y="840" width="120" height="20" as="geometry" />
        </mxCell>
        <mxCell id="N6iVnPfqX5solzvo0P7z-885" value="4.1" style="fontSize=13;" vertex="1" parent="1">
          <mxGeometry x="1600" y="860" width="120" height="20" as="geometry" />
        </mxCell>
        <mxCell id="N6iVnPfqX5solzvo0P7z-886" value="4.2" style="fontSize=13;" vertex="1" parent="1">
          <mxGeometry x="1600" y="880" width="120" height="20" as="geometry" />
        </mxCell>
        <mxCell id="N6iVnPfqX5solzvo0P7z-887" value="4.3" style="fontSize=13;" vertex="1" parent="1">
          <mxGeometry x="1600" y="900" width="120" height="20" as="geometry" />
        </mxCell>
        <mxCell id="N6iVnPfqX5solzvo0P7z-888" value="4.4" style="fontSize=13;" vertex="1" parent="1">
          <mxGeometry x="1600" y="920" width="120" height="20" as="geometry" />
        </mxCell>
        <mxCell id="N6iVnPfqX5solzvo0P7z-889" value="4.5" style="fontSize=13;" vertex="1" parent="1">
          <mxGeometry x="1600" y="940" width="120" height="20" as="geometry" />
        </mxCell>
        <mxCell id="N6iVnPfqX5solzvo0P7z-890" value="4.6" style="fontSize=13;" vertex="1" parent="1">
          <mxGeometry x="1600" y="960" width="120" height="20" as="geometry" />
        </mxCell>
        <mxCell id="N6iVnPfqX5solzvo0P7z-891" value="5" style="strokeColor=#82b366;fillColor=#d5e8d4;fontSize=13;" vertex="1" parent="1">
          <mxGeometry x="1600" y="980" width="120" height="20" as="geometry" />
        </mxCell>
        <mxCell id="N6iVnPfqX5solzvo0P7z-892" value="SỐ CẤU TRÚC&#xa; PHÂN CHIA CÔNG &#xa;VIỆC (WBS)" style="fillColor=#23445D;strokeColor=#FFFFFF;strokeWidth=2;fontColor=#FFFFFF;fontStyle=1;fontSize=13;" vertex="1" parent="1">
          <mxGeometry x="1600" y="410" width="120" height="70" as="geometry" />
        </mxCell>
        <mxCell id="N6iVnPfqX5solzvo0P7z-893" value="5.1" style="fontSize=13;" vertex="1" parent="1">
          <mxGeometry x="1600" y="1000" width="120" height="20" as="geometry" />
        </mxCell>
        <mxCell id="N6iVnPfqX5solzvo0P7z-894" value="5.2" style="fontSize=13;" vertex="1" parent="1">
          <mxGeometry x="1600" y="1020" width="120" height="20" as="geometry" />
        </mxCell>
        <mxCell id="N6iVnPfqX5solzvo0P7z-895" value="5.3" style="fontSize=13;" vertex="1" parent="1">
          <mxGeometry x="1600" y="1040" width="120" height="20" as="geometry" />
        </mxCell>
        <mxCell id="N6iVnPfqX5solzvo0P7z-896" value="5.4" style="fontSize=13;" vertex="1" parent="1">
          <mxGeometry x="1600" y="1060" width="120" height="20" as="geometry" />
        </mxCell>
        <mxCell id="N6iVnPfqX5solzvo0P7z-897" value="5.5" style="fontSize=13;" vertex="1" parent="1">
          <mxGeometry x="1600" y="1080" width="120" height="20" as="geometry" />
        </mxCell>
        <mxCell id="N6iVnPfqX5solzvo0P7z-898" value="5.6" style="fontSize=13;" vertex="1" parent="1">
          <mxGeometry x="1600" y="1100" width="120" height="20" as="geometry" />
        </mxCell>
        <mxCell id="N6iVnPfqX5solzvo0P7z-899" value="1" style="strokeColor=#82b366;fillColor=#d5e8d4;fontSize=13;" vertex="1" parent="1">
          <mxGeometry x="3190" y="480" width="120" height="20" as="geometry" />
        </mxCell>
        <mxCell id="N6iVnPfqX5solzvo0P7z-900" value="1.1" style="fontSize=13;" vertex="1" parent="1">
          <mxGeometry x="3190" y="500" width="120" height="20" as="geometry" />
        </mxCell>
        <mxCell id="N6iVnPfqX5solzvo0P7z-901" value="1.2" style="fontSize=13;" vertex="1" parent="1">
          <mxGeometry x="3190" y="520" width="120" height="20" as="geometry" />
        </mxCell>
        <mxCell id="N6iVnPfqX5solzvo0P7z-902" value="1.3" style="fontSize=13;" vertex="1" parent="1">
          <mxGeometry x="3190" y="540" width="120" height="20" as="geometry" />
        </mxCell>
        <mxCell id="N6iVnPfqX5solzvo0P7z-903" value="1.4" style="fontSize=13;" vertex="1" parent="1">
          <mxGeometry x="3190" y="560" width="120" height="20" as="geometry" />
        </mxCell>
        <mxCell id="N6iVnPfqX5solzvo0P7z-904" value="1.5" style="fontSize=13;" vertex="1" parent="1">
          <mxGeometry x="3190" y="580" width="120" height="20" as="geometry" />
        </mxCell>
        <mxCell id="N6iVnPfqX5solzvo0P7z-905" value="1.6" style="fontSize=13;" vertex="1" parent="1">
          <mxGeometry x="3190" y="600" width="120" height="20" as="geometry" />
        </mxCell>
        <mxCell id="N6iVnPfqX5solzvo0P7z-906" value="2" style="strokeColor=#82b366;fillColor=#d5e8d4;fontSize=13;" vertex="1" parent="1">
          <mxGeometry x="3190" y="620" width="120" height="20" as="geometry" />
        </mxCell>
        <mxCell id="N6iVnPfqX5solzvo0P7z-907" value="2.1" style="fontSize=13;" vertex="1" parent="1">
          <mxGeometry x="3190" y="640" width="120" height="20" as="geometry" />
        </mxCell>
        <mxCell id="N6iVnPfqX5solzvo0P7z-908" value="2.2" style="fontSize=13;" vertex="1" parent="1">
          <mxGeometry x="3190" y="660" width="120" height="20" as="geometry" />
        </mxCell>
        <mxCell id="N6iVnPfqX5solzvo0P7z-909" value="2.3" style="fontSize=13;" vertex="1" parent="1">
          <mxGeometry x="3190" y="680" width="120" height="20" as="geometry" />
        </mxCell>
        <mxCell id="N6iVnPfqX5solzvo0P7z-910" value="2.4" style="fontSize=13;" vertex="1" parent="1">
          <mxGeometry x="3190" y="700" width="120" height="20" as="geometry" />
        </mxCell>
        <mxCell id="N6iVnPfqX5solzvo0P7z-911" value="3" style="strokeColor=#82b366;fillColor=#d5e8d4;fontSize=13;" vertex="1" parent="1">
          <mxGeometry x="3190" y="720" width="120" height="20" as="geometry" />
        </mxCell>
        <mxCell id="N6iVnPfqX5solzvo0P7z-912" value="3.1" style="fontSize=13;" vertex="1" parent="1">
          <mxGeometry x="3190" y="740" width="120" height="20" as="geometry" />
        </mxCell>
        <mxCell id="N6iVnPfqX5solzvo0P7z-913" value="3.2" style="fontSize=13;" vertex="1" parent="1">
          <mxGeometry x="3190" y="760" width="120" height="20" as="geometry" />
        </mxCell>
        <mxCell id="N6iVnPfqX5solzvo0P7z-914" value="3.3" style="fontSize=13;" vertex="1" parent="1">
          <mxGeometry x="3190" y="780" width="120" height="20" as="geometry" />
        </mxCell>
        <mxCell id="N6iVnPfqX5solzvo0P7z-915" value="3.4" style="fontSize=13;" vertex="1" parent="1">
          <mxGeometry x="3190" y="800" width="120" height="20" as="geometry" />
        </mxCell>
        <mxCell id="N6iVnPfqX5solzvo0P7z-916" value="3.5" style="fontSize=13;" vertex="1" parent="1">
          <mxGeometry x="3190" y="820" width="120" height="20" as="geometry" />
        </mxCell>
        <mxCell id="N6iVnPfqX5solzvo0P7z-917" value="4" style="strokeColor=#82b366;fillColor=#d5e8d4;fontSize=13;" vertex="1" parent="1">
          <mxGeometry x="3190" y="840" width="120" height="20" as="geometry" />
        </mxCell>
        <mxCell id="N6iVnPfqX5solzvo0P7z-918" value="4.1" style="fontSize=13;" vertex="1" parent="1">
          <mxGeometry x="3190" y="860" width="120" height="20" as="geometry" />
        </mxCell>
        <mxCell id="N6iVnPfqX5solzvo0P7z-919" value="4.2" style="fontSize=13;" vertex="1" parent="1">
          <mxGeometry x="3190" y="880" width="120" height="20" as="geometry" />
        </mxCell>
        <mxCell id="N6iVnPfqX5solzvo0P7z-920" value="4.3" style="fontSize=13;" vertex="1" parent="1">
          <mxGeometry x="3190" y="900" width="120" height="20" as="geometry" />
        </mxCell>
        <mxCell id="N6iVnPfqX5solzvo0P7z-921" value="4.4" style="fontSize=13;" vertex="1" parent="1">
          <mxGeometry x="3190" y="920" width="120" height="20" as="geometry" />
        </mxCell>
        <mxCell id="N6iVnPfqX5solzvo0P7z-922" value="4.5" style="fontSize=13;" vertex="1" parent="1">
          <mxGeometry x="3190" y="940" width="120" height="20" as="geometry" />
        </mxCell>
        <mxCell id="N6iVnPfqX5solzvo0P7z-923" value="4.6" style="fontSize=13;" vertex="1" parent="1">
          <mxGeometry x="3190" y="960" width="120" height="20" as="geometry" />
        </mxCell>
        <mxCell id="N6iVnPfqX5solzvo0P7z-924" value="5" style="strokeColor=#82b366;fillColor=#d5e8d4;fontSize=13;" vertex="1" parent="1">
          <mxGeometry x="3190" y="980" width="120" height="20" as="geometry" />
        </mxCell>
        <mxCell id="N6iVnPfqX5solzvo0P7z-925" value="SỐ CẤU TRÚC&#xa; PHÂN CHIA CÔNG &#xa;VIỆC (WBS)" style="fillColor=#23445D;strokeColor=#FFFFFF;strokeWidth=2;fontColor=#FFFFFF;fontStyle=1;fontSize=13;" vertex="1" parent="1">
          <mxGeometry x="3190" y="410" width="120" height="70" as="geometry" />
        </mxCell>
        <mxCell id="N6iVnPfqX5solzvo0P7z-926" value="5.1" style="fontSize=13;" vertex="1" parent="1">
          <mxGeometry x="3190" y="1000" width="120" height="20" as="geometry" />
        </mxCell>
        <mxCell id="N6iVnPfqX5solzvo0P7z-927" value="5.2" style="fontSize=13;" vertex="1" parent="1">
          <mxGeometry x="3190" y="1020" width="120" height="20" as="geometry" />
        </mxCell>
        <mxCell id="N6iVnPfqX5solzvo0P7z-928" value="5.3" style="fontSize=13;" vertex="1" parent="1">
          <mxGeometry x="3190" y="1040" width="120" height="20" as="geometry" />
        </mxCell>
        <mxCell id="N6iVnPfqX5solzvo0P7z-929" value="5.4" style="fontSize=13;" vertex="1" parent="1">
          <mxGeometry x="3190" y="1060" width="120" height="20" as="geometry" />
        </mxCell>
        <mxCell id="N6iVnPfqX5solzvo0P7z-930" value="5.5" style="fontSize=13;" vertex="1" parent="1">
          <mxGeometry x="3190" y="1080" width="120" height="20" as="geometry" />
        </mxCell>
        <mxCell id="N6iVnPfqX5solzvo0P7z-931" value="5.6" style="fontSize=13;" vertex="1" parent="1">
          <mxGeometry x="3190" y="1100" width="120" height="20" as="geometry" />
        </mxCell>
        <mxCell id="N6iVnPfqX5solzvo0P7z-932" value="" style="strokeColor=#82b366;fillColor=#d5e8d4;fontSize=13;" vertex="1" parent="1">
          <mxGeometry x="3310" y="480" width="840" height="20" as="geometry" />
        </mxCell>
        <mxCell id="N6iVnPfqX5solzvo0P7z-933" value="" style="strokeColor=#82b366;fillColor=#d5e8d4;fontSize=13;" vertex="1" parent="1">
          <mxGeometry x="3310" y="620" width="840" height="20" as="geometry" />
        </mxCell>
        <mxCell id="N6iVnPfqX5solzvo0P7z-934" value="" style="strokeColor=#82b366;fillColor=#d5e8d4;fontSize=13;" vertex="1" parent="1">
          <mxGeometry x="3310" y="720" width="840" height="20" as="geometry" />
        </mxCell>
        <mxCell id="N6iVnPfqX5solzvo0P7z-935" value="" style="strokeColor=#82b366;fillColor=#d5e8d4;fontSize=13;" vertex="1" parent="1">
          <mxGeometry x="3310" y="840" width="840" height="20" as="geometry" />
        </mxCell>
        <mxCell id="N6iVnPfqX5solzvo0P7z-936" value="" style="strokeColor=#82b366;fillColor=#d5e8d4;fontSize=13;" vertex="1" parent="1">
          <mxGeometry x="3310" y="980" width="840" height="20" as="geometry" />
        </mxCell>
      </root>
    </mxGraphModel>
  </diagram>
</mxfile>
